<?xml version="1.0" encoding="UTF-8" standalone="no"?>
<!DOCTYPE svg PUBLIC "-//W3C//DTD SVG 20010904//EN"
"http://www.w3.org/TR/2001/REC-SVG-20010904/DTD/svg10.dtd">
<!-- Created with Sodipodi ("http://www.sodipodi.com/") -->
<svg
   id="svg548"
   sodipodi:version="0.32"
   width="400pt"
   height="400pt"
   sodipodi:docbase="/home/fulld/tmp/cartoonic/images/"
   sodipodi:docname="/home/fulld/tmp/cartoonic/images/admin.svg"
   xmlns="http://www.w3.org/2000/svg"
   xmlns:sodipodi="http://sodipodi.sourceforge.net/DTD/sodipodi-0.dtd"
   xmlns:xlink="http://www.w3.org/1999/xlink">
  <defs
     id="defs550">
    <linearGradient
       id="linearGradient573">
      <stop
         style="stop-color:#ff0000;stop-opacity:1;"
         offset="0.000000"
         id="stop574" />
      <stop
         style="stop-color:#870000;stop-opacity:1;"
         offset="1.000000"
         id="stop575" />
    </linearGradient>
    <linearGradient
       id="linearGradient563">
      <stop
         style="stop-color:#000;stop-opacity:1;"
         offset="0"
         id="stop564" />
      <stop
         style="stop-color:#fff;stop-opacity:1;"
         offset="1"
         id="stop565" />
    </linearGradient>
    <linearGradient
       xlink:href="#linearGradient573"
       id="linearGradient566"
       x1="0.69696993"
       y1="0.65625024"
       x2="0.57575774"
       y2="0.50000018"
       gradientUnits="objectBoundingBox"
       spreadMethod="reflect" />
    <radialGradient
       xlink:href="#linearGradient573"
       id="radialGradient567"
       cx="0.49767339"
       cy="0.48394784"
       fx="0.49767339"
       fy="0.48394784"
       r="0.67371601"
       gradientUnits="objectBoundingBox"
       spreadMethod="pad" />
    <linearGradient
       xlink:href="#linearGradient563"
       id="linearGradient569"
       x1="-0.72131294"
       y1="0.10937556"
       x2="1.26229525"
       y2="1.12500000"
       gradientUnits="objectBoundingBox"
       spreadMethod="pad" />
    <radialGradient
       xlink:href="#linearGradient573"
       id="radialGradient579"
       cx="0.46464661"
       cy="0.32812479"
       fx="0.46464661"
       fy="0.32812479"
       r="0.61277765"
       gradientUnits="objectBoundingBox"
       spreadMethod="reflect" />
  </defs>
  <sodipodi:namedview
     id="base" />
  <path
     style="fill:#6e6e6e;fill-rule:evenodd;stroke:none;stroke-opacity:1;stroke-width:1pt;stroke-linejoin:miter;stroke-linecap:butt;fill-opacity:1;"
     d="M 181.827 202.566 C 181.568 200.854 179.786 192.5 181.827 189.097 C 184.095 185.728 187.38 182.482 189.684 177.874 C 193.411 175.145 195.256 170.912 196.419 166.65 C 199.169 162.704 202.232 158.671 205.398 154.303 C 209.885 151.465 212.891 149.179 216.622 145.324 C 219.748 141.305 221.75 139.038 223.356 132.978 C 225.966 129.233 227.921 125.135 230.09 121.754 C 233.056 117.033 234.594 113.729 236.825 109.408 C 240.608 104.363 243.793 99.0654 246.926 93.6942 C 250.191 91.4742 253.436 87.2414 258.15 82.4702 C 262.794 77.7117 266.556 73.4404 269.374 69.0015 C 272.298 66.6624 275.333 62.8128 277.231 60.0224 C 283.007 56.1249 285.204 52.6814 288.455 47.6761 C 291.366 44.0083 294.136 40.774 296.311 37.5746 C 299.587 34.5723 305.243 29.3135 307.535 26.3507 C 311.09 24.1634 313.598 22.5254 318.759 20.7387 C 323.436 18.7001 327.347 17.7917 331.106 15.1267 C 336.444 14.7161 339.596 13.0999 345.697 12.882 C 351.766 12.882 356.37 12.8469 361.41 15.1267 C 366.747 17.7317 370.465 22.0379 372.634 25.2283 C 376.095 27.5816 377.776 29.9908 381.613 33.085 C 385.703 37.6088 388.98 39.454 391.715 44.3089 C 393.191 47.4263 393.96 49.2555 393.96 54.4104 C 395.862 57.5812 394.697 62.2411 393.96 65.6344 C 393.231 71.1297 391.67 74.7457 389.47 77.9807 C 387.168 80.8352 383.43 80.2254 378.246 80.2254 C 372.407 78.928 370.154 77.5784 365.9 74.6135 C 360.916 72.1214 358.297 69.255 352.431 67.8791 C 349.72 65.2944 345.812 63.442 342.329 60.0224 C 339.399 58.264 337.543 57.7776 332.228 57.7776 C 326.731 59.6098 329.42 62.0831 332.228 65.6344 C 335.302 68.6464 339.028 72.185 342.329 75.7359 C 345.869 77.9142 348.835 79.2306 351.309 83.5926 C 355.066 86.0739 357.55 89.892 361.41 93.6942 C 363.116 98.8109 362.368 102.654 359.165 107.163 C 355.589 109.334 350.175 109.408 344.574 109.408 C 339.709 110.624 334.353 110.53 328.861 110.53 C 322.204 110.055 315.825 109.408 308.658 109.408 C 304.346 109.87 299.159 110.164 295.189 111.652 C 290.457 115.229 281.624 120.65 277.231 125.121 C 274.343 127.143 270.226 130.828 267.129 134.1 C 261.601 137.83 258.589 140.983 257.028 146.447 C 253.166 148.961 253.347 151.002 250.293 154.303 C 247.517 157.604 243.268 163.102 240.192 165.527 C 237.223 171.694 236.119 172.467 231.213 176.751 C 229.255 179.932 227.497 183.772 224.478 186.853 C 224.193 189.424 222.752 190.121 221.111 192.465 C 225.065 189.39 220.87 195.547 214.513 201.07 C 207.323 208.726 207.78 210.127 201.033 210.038 C 198.885 213.289 198.305 215.207 192.915 211.885 C 186.193 207.102 188.816 208.927 181.827 202.566 z "
     id="path581"
     sodipodi:nodetypes="cccccccccccccccccccccccccccccccccccccccccccccccccccc"
     transform="translate(20.20306,15.71346)" />
  <path
     style="fill:url(#linearGradient566);fill-rule:evenodd;stroke:none;stroke-opacity:1;stroke-width:1pt;stroke-linejoin:miter;stroke-linecap:butt;fill-opacity:1;"
     d="M 75.2003 436.024 C 74.8261 436.024 74.452 436.024 74.0779 436.024 C 77.5959 436.024 75.4924 436.257 69.5883 431.534 C 68.8141 425.693 67.3435 423.394 67.3435 416.943 C 65.118 410.266 66.7044 407.586 70.7107 402.352 C 74.1476 398.188 76.383 395.495 79.6898 390.006 C 82.2577 385.961 86.1965 382.586 87.5466 378.782 C 90.9609 375.982 208.011 226.875 209.887 221.647 C 212.483 217.152 215.041 215.244 217.744 211.545 C 221.983 209.052 222.234 207.557 222.234 202.566 C 223.912 199.21 223.705 192.388 222.234 187.975 C 222.234 181.993 222.71 176.626 223.356 171.139 C 223.356 163.402 223.75 162.749 228.968 157.671 C 233.174 153.296 234.284 152.015 237.947 155.426 C 244.035 157.165 243.255 159.655 250.293 159.915 C 254.863 158.84 257.985 157.034 261.517 153.181 C 263.452 150.038 267.057 146.554 269.374 143.079 C 270.487 139.539 272.267 136.63 270.496 134.1 C 266.507 130.883 264.703 129.247 262.64 125.121 C 259.458 122.98 255.922 118.832 251.416 117.264 C 248.5 114.737 245.583 112.574 241.314 110.53 C 238.67 108.009 236.436 104.801 233.457 102.673 C 231.574 98.1883 230.314 95.5248 233.457 91.4494 C 235.371 86.2643 236.562 81.9967 239.069 79.1031 C 240.34 75.1759 243.185 70.0901 245.804 66.7567 C 248.498 62.7863 251.391 60.1544 257.028 57.7776 C 262.266 57.7776 267.503 57.7776 272.741 57.7776 C 277.979 57.7776 283.217 57.7776 288.455 57.7776 C 294.844 57.7776 297.566 58.8341 301.923 60.0224 C 304.528 62.5055 308.735 64.7829 310.903 67.8791 C 314.407 69.8648 317.431 72.2767 319.882 74.6135 C 323.291 79.567 325.412 82.4292 329.983 84.715 C 332.912 88.2296 336.467 89.551 338.962 92.5718 C 342.724 94.4197 345.744 97.197 347.941 100.429 C 351.077 102.56 353.592 105.114 356.921 107.163 C 358.376 109.865 360.064 108.523 360.288 112.775 C 361.901 114.388 357.712 114.199 355.798 115.02 C 352.018 116.532 347.796 119.626 344.574 121.754 C 340.71 124.61 337.756 125.38 335.595 129.611 C 331.176 134.403 329.804 136.473 327.738 140.835 C 325.187 143.51 130.092 411.381 124.585 414.698 C 121.331 416.911 119.374 419.781 116.729 422.555 C 114.723 428.07 112.508 428.96 109.994 432.656 C 106.326 435.151 104.368 436.126 98.7705 438.268 C 93.2264 438.928 89.0257 440.146 85.3018 441.636 C 80.3096 443.3 75.355 443.218 71.8331 440.513 C 76.5092 434.278 76.8043 436.986 69.5883 432.656 C 68.4332 430.731 67.9584 429.602 67.3435 428.167 "
     id="path576"
     sodipodi:nodetypes="cccccccccccccccccccccccccccccccccccccccccccccccc"
     transform="translate(20.20306,15.71346)" />
  <rect
     style="font-size:12;fill:url(#radialGradient567);fill-rule:evenodd;stroke-width:1pt;"
     id="rect572"
     width="25.646238"
     height="384.980125"
     x="337.567070"
     y="-96.937509"
     rx="6.01306102"
     transform="matrix(0.795655,0.605750,-0.603630,0.797265,0.000000,0.000000)" />
  <path
     style="fill:#160000;fill-rule:evenodd;stroke:none;stroke-opacity:1;stroke-width:1pt;stroke-linejoin:miter;stroke-linecap:butt;fill-opacity:1;"
     d="M 214.377 136.345 C 214.751 136.345 215.125 136.345 215.499 136.345 C 212.195 136.345 214.184 136.666 217.744 130.733 C 221.09 126.585 222.674 124.944 225.601 119.509 C 228.697 115.298 229.287 114.053 234.58 113.897 C 237.369 111.805 240.65 111.652 245.804 111.652 C 247.925 114.772 250.422 118.175 254.783 120.632 C 257.698 124.902 261.215 126.242 263.762 130.733 C 267.006 133.349 265.431 135.737 264.884 140.835 C 261.876 143.843 258.914 149.05 255.905 152.059 C 253.223 155.814 250.61 156.099 244.681 157.671 C 238.032 157.433 235.522 154.686 231.213 153.181 C 228.039 149.942 224.763 147.692 219.989 146.447 C 214.984 144.302 214.87 143.749 214.377 136.345 z "
     id="path580"
     transform="translate(20.20306,15.71346)" />
</svg>
