<?xml version="1.0" encoding="UTF-8" standalone="no"?>
<!DOCTYPE svg PUBLIC "-//W3C//DTD SVG 20010904//EN"
"http://www.w3.org/TR/2001/REC-SVG-20010904/DTD/svg10.dtd"
[
 <!ATTLIST svg
  xmlns:xlink CDATA #FIXED "http://www.w3.org/1999/xlink">
]>
<!-- Created with Sodipodi ("http://www.sodipodi.com/") -->
<svg
   id="svg548"
   sodipodi:version="0.32"
   xmlns="http://www.w3.org/2000/svg"
   xmlns:sodipodi="http://sodipodi.sourceforge.net/DTD/sodipodi-0.dtd"
   xmlns:xlink="http://www.w3.org/1999/xlink"
   width="400pt"
   height="400pt"
   sodipodi:docbase="/home/fulld/tmp/cartoonic/images"
   sodipodi:docname="/home/fulld/tmp/cartoonic/images/admin-item.svg">
  <defs
     id="defs550">
    <linearGradient
       id="linearGradient563">
      <stop
         style="stop-color:#000;stop-opacity:1;"
         offset="0"
         id="stop564" />
      <stop
         style="stop-color:#fff;stop-opacity:1;"
         offset="1"
         id="stop565" />
    </linearGradient>
    <linearGradient
       xlink:href="#linearGradient563"
       id="linearGradient566"
       x1="0.28780627"
       y1="0.29687789"
       x2="0.41951209"
       y2="0.50781262"
       gradientUnits="objectBoundingBox"
       spreadMethod="reflect" />
    <radialGradient
       xlink:href="#linearGradient563"
       id="radialGradient567"
       cx="0.47317064"
       cy="0.25781336"
       fx="0.47317064"
       fy="0.25781336"
       r="0.86329508"
       gradientUnits="objectBoundingBox"
       spreadMethod="pad" />
    <linearGradient
       xlink:href="#linearGradient563"
       id="linearGradient569"
       x1="-0.72131294"
       y1="0.10937556"
       x2="1.26229525"
       y2="1.12500000"
       gradientUnits="objectBoundingBox"
       spreadMethod="pad" />
  </defs>
  <sodipodi:namedview
     id="base" />
  <path
     style="fill:#afafaf;fill-rule:evenodd;stroke:none;stroke-opacity:1;stroke-width:1pt;stroke-linejoin:miter;stroke-linecap:butt;fill-opacity:1;"
     d="M 247.222 668.166 L 337.424 835.208 L 417.604 868.616 L 430.967 788.436 L 344.106 624.736 L 253.903 571.282 L 247.222 668.166 z "
     id="path557"
     transform="matrix(0.993094,0.117319,-0.117319,0.993094,143.3737,-550.9991)" />
  <path
     style="fill:#565656;fill-rule:evenodd;stroke:none;stroke-opacity:1;stroke-width:1pt;stroke-linejoin:miter;stroke-linecap:butt;fill-opacity:1;"
     d="M 378.302 589.207 L 318.198 621.027 L 335.876 511.425 L 395.98 493.748 L 378.302 589.207 z "
     id="path558"
     transform="translate(-67.17525,-445.4781)" />
  <path
     style="fill:#5b5b5b;fill-rule:evenodd;stroke:none;stroke-opacity:1;stroke-width:1pt;stroke-linejoin:miter;stroke-linecap:butt;fill-opacity:1;"
     d="M 392.5 793.612 L 446.25 761.112 L 522.5 806.112 L 468.75 838.612 L 392.5 793.612 z "
     id="path560"
     sodipodi:nodetypes="ccccc"
     transform="translate(-67.17525,-445.4781)" />
  <path
     style="fill:url(#linearGradient566);fill-rule:evenodd;stroke:none;stroke-opacity:1;stroke-width:1pt;stroke-linejoin:miter;stroke-linecap:butt;fill-opacity:1;"
     d="M 337.644 661.685 L 106.066 750.074 L 130.815 824.32 L 365.928 727.093 L 337.644 661.685 z "
     id="path562"
     transform="matrix(1.074133,0.000000,0.000000,1.114142,-84.30502,-514.0194)" />
  <path
     style="fill:url(#linearGradient569);fill-rule:nonzero;stroke:none;fill-opacity:1;stroke-opacity:1;stroke-width:1pt;stroke-linejoin:miter;stroke-linecap:butt;"
     id="path568"
     d="M 135.761 740.609 C 141.338 744.852 132.396 740.033 129.308 739.21 C 124.452 738.76 120.099 738.38 115.96 741.208 C 116.499 743.147 117.433 746.424 118.167 748.75 C 121.6 757.901 124.355 766.711 126.155 776.326 C 127.071 783.505 127.676 790.61 129.667 797.573 C 131.822 802.256 134.474 805.766 138 809.528 C 142.853 813.861 147.796 817.87 153.176 821.528 C 153.413 821.652 153.65 821.775 153.887 821.899 L 144.079 841.421 C 143.542 841.111 143.005 840.801 142.468 840.49 C 135.882 835.91 129.783 830.966 123.8 825.621 C 117.74 819.208 113.583 813.194 110.032 805.11 C 107.75 796.724 106.767 788.445 105.702 779.831 C 104.233 771.672 101.75 764.313 98.7897 756.574 C 94.6916 742.98 94.9343 735.749 102.963 723.957 C 113.461 717.792 121.146 716.527 133.261 717.665 C 139.584 719.179 145.14 720.606 150.554 724.119 L 135.761 740.609 z "
     transform="matrix(1.074133,0.000000,0.000000,1.114142,-84.30502,-514.0194)" />
  <path
     style="fill:url(#linearGradient569);fill-rule:nonzero;stroke:none;fill-opacity:1;stroke-opacity:1;stroke-width:1pt;stroke-linejoin:miter;stroke-linecap:butt;"
     id="path575"
     d="M 135.761 740.609 C 141.338 744.852 132.396 740.033 129.308 739.21 C 124.452 738.76 120.099 738.38 115.96 741.208 C 116.499 743.147 117.433 746.424 118.167 748.75 C 121.6 757.901 124.355 766.711 126.155 776.326 C 127.071 783.505 127.676 790.61 129.667 797.573 C 131.822 802.256 134.474 805.766 138 809.528 C 142.853 813.861 147.796 817.87 153.176 821.528 C 153.413 821.652 153.65 821.775 153.887 821.899 L 144.079 841.421 C 143.542 841.111 143.005 840.801 142.468 840.49 C 135.882 835.91 129.783 830.966 123.8 825.621 C 117.74 819.208 113.583 813.194 110.032 805.11 C 107.75 796.724 106.767 788.445 105.702 779.831 C 104.233 771.672 101.75 764.313 98.7897 756.574 C 94.6916 742.98 94.9343 735.749 102.963 723.957 C 113.461 717.792 121.146 716.527 133.261 717.665 C 139.584 719.179 145.14 720.606 150.554 724.119 L 135.761 740.609 z "
     transform="matrix(1.074133,0.000000,0.000000,1.114142,-49.17522,-527.3801)" />
  <path
     style="fill:url(#linearGradient569);fill-rule:nonzero;stroke:none;fill-opacity:1;stroke-opacity:1;stroke-width:1pt;stroke-linejoin:miter;stroke-linecap:butt;"
     id="path574"
     d="M 135.761 740.609 C 141.338 744.852 132.396 740.033 129.308 739.21 C 124.452 738.76 120.099 738.38 115.96 741.208 C 116.499 743.147 117.433 746.424 118.167 748.75 C 121.6 757.901 124.355 766.711 126.155 776.326 C 127.071 783.505 127.676 790.61 129.667 797.573 C 131.822 802.256 134.474 805.766 138 809.528 C 142.853 813.861 147.796 817.87 153.176 821.528 C 153.413 821.652 153.65 821.775 153.887 821.899 L 144.079 841.421 C 143.542 841.111 143.005 840.801 142.468 840.49 C 135.882 835.91 129.783 830.966 123.8 825.621 C 117.74 819.208 113.583 813.194 110.032 805.11 C 107.75 796.724 106.767 788.445 105.702 779.831 C 104.233 771.672 101.75 764.313 98.7897 756.574 C 94.6916 742.98 94.9343 735.749 102.963 723.957 C 113.461 717.792 121.146 716.527 133.261 717.665 C 139.584 719.179 145.14 720.606 150.554 724.119 L 135.761 740.609 z "
     transform="matrix(1.074133,0.000000,0.000000,1.114142,-14.04544,-540.7406)" />
  <path
     style="fill:url(#linearGradient569);fill-rule:nonzero;stroke:none;fill-opacity:1;stroke-opacity:1;stroke-width:1pt;stroke-linejoin:miter;stroke-linecap:butt;"
     id="path573"
     d="M 135.761 740.609 C 141.338 744.852 132.396 740.033 129.308 739.21 C 124.452 738.76 120.099 738.38 115.96 741.208 C 116.499 743.147 117.433 746.424 118.167 748.75 C 121.6 757.901 124.355 766.711 126.155 776.326 C 127.071 783.505 127.676 790.61 129.667 797.573 C 131.822 802.256 134.474 805.766 138 809.528 C 142.853 813.861 147.796 817.87 153.176 821.528 C 153.413 821.652 153.65 821.775 153.887 821.899 L 144.079 841.421 C 143.542 841.111 143.005 840.801 142.468 840.49 C 135.882 835.91 129.783 830.966 123.8 825.621 C 117.74 819.208 113.583 813.194 110.032 805.11 C 107.75 796.724 106.767 788.445 105.702 779.831 C 104.233 771.672 101.75 764.313 98.7897 756.574 C 94.6916 742.98 94.9343 735.749 102.963 723.957 C 113.461 717.792 121.146 716.527 133.261 717.665 C 139.584 719.179 145.14 720.606 150.554 724.119 L 135.761 740.609 z "
     transform="matrix(1.074133,0.000000,0.000000,1.114142,21.08437,-554.1013)" />
  <path
     style="fill:url(#linearGradient569);fill-rule:nonzero;stroke:none;fill-opacity:1;stroke-opacity:1;stroke-width:1pt;stroke-linejoin:miter;stroke-linecap:butt;"
     id="path572"
     d="M 135.761 740.609 C 141.338 744.852 132.396 740.033 129.308 739.21 C 124.452 738.76 120.099 738.38 115.96 741.208 C 116.499 743.147 117.433 746.424 118.167 748.75 C 121.6 757.901 124.355 766.711 126.155 776.326 C 127.071 783.505 127.676 790.61 129.667 797.573 C 131.822 802.256 134.474 805.766 138 809.528 C 142.853 813.861 147.796 817.87 153.176 821.528 C 153.413 821.652 153.65 821.775 153.887 821.899 L 144.079 841.421 C 143.542 841.111 143.005 840.801 142.468 840.49 C 135.882 835.91 129.783 830.966 123.8 825.621 C 117.74 819.208 113.583 813.194 110.032 805.11 C 107.75 796.724 106.767 788.445 105.702 779.831 C 104.233 771.672 101.75 764.313 98.7897 756.574 C 94.6916 742.98 94.9343 735.749 102.963 723.957 C 113.461 717.792 121.146 716.527 133.261 717.665 C 139.584 719.179 145.14 720.606 150.554 724.119 L 135.761 740.609 z "
     transform="matrix(1.074133,0.000000,0.000000,1.114142,56.21415,-567.4618)" />
  <path
     style="fill:url(#linearGradient569);fill-rule:nonzero;stroke:none;fill-opacity:1;stroke-opacity:1;stroke-width:1pt;stroke-linejoin:miter;stroke-linecap:butt;"
     id="path570"
     d="M 135.761 740.609 C 141.338 744.852 132.396 740.033 129.308 739.21 C 124.452 738.76 120.099 738.38 115.96 741.208 C 116.499 743.147 117.433 746.424 118.167 748.75 C 121.6 757.901 124.355 766.711 126.155 776.326 C 127.071 783.505 127.676 790.61 129.667 797.573 C 131.822 802.256 134.474 805.766 138 809.528 C 142.853 813.861 147.796 817.87 153.176 821.528 C 153.413 821.652 153.65 821.775 153.887 821.899 L 144.079 841.421 C 143.542 841.111 143.005 840.801 142.468 840.49 C 135.882 835.91 129.783 830.966 123.8 825.621 C 117.74 819.208 113.583 813.194 110.032 805.11 C 107.75 796.724 106.767 788.445 105.702 779.831 C 104.233 771.672 101.75 764.313 98.7897 756.574 C 94.6916 742.98 94.9343 735.749 102.963 723.957 C 113.461 717.792 121.146 716.527 133.261 717.665 C 139.584 719.179 145.14 720.606 150.554 724.119 L 135.761 740.609 z "
     transform="matrix(1.074133,0.000000,0.000000,1.114142,91.34393,-580.8226)" />
  <path
     style="fill:url(#linearGradient569);fill-rule:nonzero;stroke:none;fill-opacity:1;stroke-opacity:1;stroke-width:1pt;stroke-linejoin:miter;stroke-linecap:butt;"
     id="path571"
     d="M 135.761 740.609 C 141.338 744.852 132.396 740.033 129.308 739.21 C 124.452 738.76 120.099 738.38 115.96 741.208 C 116.499 743.147 117.433 746.424 118.167 748.75 C 121.6 757.901 124.355 766.711 126.155 776.326 C 127.071 783.505 127.676 790.61 129.667 797.573 C 131.822 802.256 134.474 805.766 138 809.528 C 142.853 813.861 147.796 817.87 153.176 821.528 C 153.413 821.652 153.65 821.775 153.887 821.899 L 144.079 841.421 C 143.542 841.111 143.005 840.801 142.468 840.49 C 135.882 835.91 129.783 830.966 123.8 825.621 C 117.74 819.208 113.583 813.194 110.032 805.11 C 107.75 796.724 106.767 788.445 105.702 779.831 C 104.233 771.672 101.75 764.313 98.7897 756.574 C 94.6916 742.98 94.9343 735.749 102.963 723.957 C 113.461 717.792 121.146 716.527 133.261 717.665 C 139.584 719.179 145.14 720.606 150.554 724.119 L 135.761 740.609 z "
     transform="matrix(1.074133,0.000000,0.000000,1.114142,126.4738,-594.1830)" />
  <path
     style="fill:url(#linearGradient569);fill-rule:nonzero;stroke:none;fill-opacity:1;stroke-opacity:1;stroke-width:1pt;stroke-linejoin:miter;stroke-linecap:butt;"
     id="path576"
     d="M 135.761 740.609 C 141.338 744.852 132.396 740.033 129.308 739.21 C 124.452 738.76 120.099 738.38 115.96 741.208 C 116.499 743.147 117.433 746.424 118.167 748.75 C 121.6 757.901 124.355 766.711 126.155 776.326 C 127.071 783.505 127.676 790.61 129.667 797.573 C 131.822 802.256 134.474 805.766 138 809.528 C 142.853 813.861 147.796 817.87 153.176 821.528 C 153.413 821.652 153.65 821.775 153.887 821.899 L 144.079 841.421 C 143.542 841.111 143.005 840.801 142.468 840.49 C 135.882 835.91 129.783 830.966 123.8 825.621 C 117.74 819.208 113.583 813.194 110.032 805.11 C 107.75 796.724 106.767 788.445 105.702 779.831 C 104.233 771.672 101.75 764.313 98.7897 756.574 C 94.6916 742.98 94.9343 735.749 102.963 723.957 C 113.461 717.792 121.146 716.527 133.261 717.665 C 139.584 719.179 145.14 720.606 150.554 724.119 L 135.761 740.609 z "
     transform="matrix(1.074133,0.000000,0.000000,1.114142,161.6036,-607.5438)" />
  <path
     style="fill:#8d8d8d;fill-rule:evenodd;stroke:none;stroke-opacity:1;stroke-width:1pt;stroke-linejoin:miter;stroke-linecap:butt;fill-opacity:1;"
     d="M 318.75 619.862 L 378.75 588.612 L 447.5 761.112 L 392.5 793.612 L 318.75 619.862 z "
     id="path559"
     sodipodi:nodetypes="ccccc"
     transform="translate(-67.17525,-445.4781)" />
</svg>
