<?xml version="1.0" encoding="UTF-8" standalone="no"?>
<!DOCTYPE svg PUBLIC "-//W3C//DTD SVG 20010904//EN"
"http://www.w3.org/TR/2001/REC-SVG-20010904/DTD/svg10.dtd">
<!-- Created with Sodipodi ("http://www.sodipodi.com/") -->
<svg
   id="svg548"
   sodipodi:version="0.32"
   width="400pt"
   height="400pt"
   sodipodi:docbase="/home/fulld/tmp/cartoonic/images"
   sodipodi:docname="/home/fulld/tmp/cartoonic/images/album.svg"
   xmlns="http://www.w3.org/2000/svg"
   xmlns:sodipodi="http://sodipodi.sourceforge.net/DTD/sodipodi-0.dtd"
   xmlns:xlink="http://www.w3.org/1999/xlink">
  <defs
     id="defs550">
    <linearGradient
       id="linearGradient1393">
      <stop
         style="stop-color:#f5dd97;stop-opacity:1;"
         offset="0.000000"
         id="stop1394" />
      <stop
         style="stop-color:#a75a2a;stop-opacity:1;"
         offset="1.000000"
         id="stop1395" />
    </linearGradient>
    <linearGradient
       id="linearGradient1390">
      <stop
         style="stop-color:#fff5ad;stop-opacity:1;"
         offset="0.000000"
         id="stop1391" />
      <stop
         style="stop-color:#dda200;stop-opacity:1;"
         offset="1.000000"
         id="stop1392" />
    </linearGradient>
    <linearGradient
       id="linearGradient1328">
      <stop
         style="stop-color:#3dff4f;stop-opacity:1;"
         offset="0.000000"
         id="stop1329" />
      <stop
         style="stop-color:#004500;stop-opacity:1;"
         offset="1.000000"
         id="stop1330" />
    </linearGradient>
    <linearGradient
       id="linearGradient573">
      <stop
         style="stop-color:#ff0000;stop-opacity:1;"
         offset="0.000000"
         id="stop574" />
      <stop
         style="stop-color:#870000;stop-opacity:1;"
         offset="1.000000"
         id="stop575" />
    </linearGradient>
    <linearGradient
       id="linearGradient563">
      <stop
         style="stop-color:#000;stop-opacity:1;"
         offset="0"
         id="stop564" />
      <stop
         style="stop-color:#fff;stop-opacity:1;"
         offset="1"
         id="stop565" />
    </linearGradient>
    <linearGradient
       xlink:href="#linearGradient1393"
       id="linearGradient566" />
    <radialGradient
       xlink:href="#linearGradient1390"
       id="radialGradient567"
       cx="0.44680732"
       cy="0.21874997"
       fx="0.44680732"
       fy="0.21874997"
       r="0.74080765"
       gradientUnits="objectBoundingBox"
       spreadMethod="reflect" />
    <linearGradient
       xlink:href="#linearGradient1393"
       id="linearGradient569"
       x1="-0.56919336"
       y1="-0.08011556"
       x2="1.12393117"
       y2="1.04285252"
       gradientUnits="objectBoundingBox"
       gradientTransform="scale(0.830916,1.203491)"
       spreadMethod="reflect" />
    <radialGradient
       xlink:href="#linearGradient1393"
       id="radialGradient579"
       cx="0.50000030"
       cy="0.49999988"
       fx="0.50000030"
       fy="0.49999988"
       r="0.50000000"
       gradientUnits="objectBoundingBox"
       gradientTransform="scale(0.853975,1.170995)"
       spreadMethod="reflect" />
    <linearGradient
       xlink:href="#linearGradient1393"
       id="linearGradient1161"
       x1="-0.02876383"
       y1="1.19381380"
       x2="1.73517823"
       y2="2.36375165"
       gradientUnits="objectBoundingBox"
       gradientTransform="scale(0.747699,1.337437)"
       spreadMethod="reflect" />
    <linearGradient
       xlink:href="#linearGradient1393"
       id="linearGradient1162"
       x1="0.17173776"
       y1="0.63381582"
       x2="2.07332706"
       y2="1.89504874"
       gradientUnits="objectBoundingBox"
       gradientTransform="scale(0.829701,1.205253)"
       spreadMethod="reflect" />
    <linearGradient
       xlink:href="#linearGradient1393"
       id="linearGradient1163"
       x1="0.45706484"
       y1="0.23856838"
       x2="2.24137521"
       y2="1.42201591"
       gradientUnits="objectBoundingBox"
       gradientTransform="scale(0.795080,1.257735)"
       spreadMethod="reflect" />
    <linearGradient
       xlink:href="#linearGradient1393"
       id="linearGradient1164"
       x1="0.00000029"
       y1="-0.00000010"
       x2="1.00000048"
       y2="-0.00000010"
       gradientUnits="objectBoundingBox"
       gradientTransform="scale(0.853975,1.170995)"
       spreadMethod="reflect" />
    <linearGradient
       xlink:href="#linearGradient1393"
       id="linearGradient1165"
       x1="0.69286114"
       y1="-0.62687671"
       x2="2.53400135"
       y2="0.59426290"
       gradientUnits="objectBoundingBox"
       gradientTransform="scale(0.743763,1.344514)"
       spreadMethod="reflect" />
    <linearGradient
       xlink:href="#linearGradient1393"
       id="linearGradient1166"
       x1="0.44817454"
       y1="-1.07096219"
       x2="2.16048050"
       y2="0.06472751"
       gradientUnits="objectBoundingBox"
       gradientTransform="scale(0.750087,1.333178)"
       spreadMethod="reflect" />
    <linearGradient
       xlink:href="#linearGradient1393"
       id="linearGradient1317"
       x1="0.09424189"
       y1="0.94530618"
       x2="0.81151897"
       y2="0.18749903"
       gradientUnits="objectBoundingBox"
       spreadMethod="reflect" />
    <linearGradient
       xlink:href="#linearGradient1393"
       id="linearGradient1318"
       x1="0.18260871"
       y1="0.36718965"
       x2="0.93913049"
       y2="0.28125009"
       gradientUnits="objectBoundingBox"
       spreadMethod="reflect" />
    <linearGradient
       xlink:href="#linearGradient1393"
       id="linearGradient1319"
       x1="0.98969066"
       y1="0.49219215"
       x2="0.17525771"
       y2="0.65625012"
       gradientUnits="objectBoundingBox"
       spreadMethod="reflect" />
    <linearGradient
       xlink:href="#linearGradient1393"
       id="linearGradient1320" />
    <linearGradient
       xlink:href="#linearGradient1328"
       id="linearGradient1321"
       x1="-2.11564994"
       y1="0.55158490"
       x2="-0.10631066"
       y2="1.88428295"
       gradientUnits="objectBoundingBox"
       gradientTransform="scale(0.730598,1.368742)"
       spreadMethod="reflect" />
    <linearGradient
       xlink:href="#linearGradient1328"
       id="linearGradient1322"
       x1="-0.83370996"
       y1="-0.09970176"
       x2="0.65171105"
       y2="0.88550657"
       gradientUnits="objectBoundingBox"
       gradientTransform="scale(0.653171,1.530993)"
       spreadMethod="reflect" />
    <linearGradient
       xlink:href="#linearGradient1328"
       id="linearGradient1323"
       x1="-1.88706589"
       y1="-0.00589936"
       x2="-0.30642712"
       y2="1.04246235"
       gradientUnits="objectBoundingBox"
       gradientTransform="scale(0.726990,1.375535)"
       spreadMethod="reflect" />
    <linearGradient
       xlink:href="#linearGradient1328"
       id="linearGradient1324"
       x1="-1.49975526"
       y1="-0.37322065"
       x2="0.16866800"
       y2="0.73336446"
       gradientUnits="objectBoundingBox"
       gradientTransform="scale(0.727968,1.373686)"
       spreadMethod="reflect" />
    <linearGradient
       xlink:href="#linearGradient1328"
       id="linearGradient1325"
       x1="-1.24273002"
       y1="-1.16123796"
       x2="0.39950371"
       y2="-0.07202328"
       gradientUnits="objectBoundingBox"
       gradientTransform="scale(0.677332,1.476382)"
       spreadMethod="reflect" />
    <linearGradient
       xlink:href="#linearGradient1328"
       id="linearGradient1326"
       x1="-2.36128831"
       y1="-1.05970490"
       x2="-0.53056175"
       y2="0.15452823"
       gradientUnits="objectBoundingBox"
       gradientTransform="scale(0.743643,1.344731)"
       spreadMethod="reflect" />
    <linearGradient
       xlink:href="#linearGradient1328"
       id="linearGradient1327"
       x1="-2.08227515"
       y1="-2.52109408"
       x2="0.16031049"
       y2="-1.03369474"
       gradientUnits="objectBoundingBox"
       gradientTransform="scale(0.666190,1.501073)"
       spreadMethod="reflect" />
    <linearGradient
       xlink:href="#linearGradient1328"
       id="linearGradient1331"
       x1="-0.92001414"
       y1="-1.90153396"
       x2="2.29019189"
       y2="0.92794436"
       gradientUnits="objectBoundingBox"
       spreadMethod="pad" />
    <linearGradient
       xlink:href="#linearGradient1328"
       id="linearGradient1332"
       x1="-1.04953825"
       y1="-0.94848257"
       x2="2.13056374"
       y2="1.85446215"
       gradientUnits="objectBoundingBox"
       gradientTransform="scale(0.830916,1.203491)"
       spreadMethod="pad" />
    <linearGradient
       xlink:href="#linearGradient1328"
       id="linearGradient1333"
       x1="-0.52919781"
       y1="0.28912619"
       x2="2.78391576"
       y2="3.20930696"
       gradientUnits="objectBoundingBox"
       gradientTransform="scale(0.747699,1.337437)"
       spreadMethod="pad" />
    <linearGradient
       xlink:href="#linearGradient1328"
       id="linearGradient1334"
       x1="-0.36774811"
       y1="-0.34146821"
       x2="3.20390081"
       y2="2.80658650"
       gradientUnits="objectBoundingBox"
       gradientTransform="scale(0.829701,1.205253)"
       spreadMethod="pad" />
    <linearGradient
       xlink:href="#linearGradient1328"
       id="linearGradient1335"
       x1="-0.04914929"
       y1="-0.67656577"
       x2="3.30222154"
       y2="2.27733541"
       gradientUnits="objectBoundingBox"
       gradientTransform="scale(0.795080,1.257735)"
       spreadMethod="pad" />
    <linearGradient
       xlink:href="#linearGradient1328"
       id="linearGradient1336"
       x1="-0.25892147"
       y1="-1.00649130"
       x2="2.94204164"
       y2="1.81484020"
       gradientUnits="objectBoundingBox"
       gradientTransform="scale(0.853975,1.170995)"
       spreadMethod="pad" />
    <linearGradient
       xlink:href="#linearGradient1328"
       id="linearGradient1337"
       x1="0.17052449"
       y1="-1.57115757"
       x2="3.62863517"
       y2="1.47682381"
       gradientUnits="objectBoundingBox"
       gradientTransform="scale(0.743763,1.344514)"
       spreadMethod="pad" />
    <linearGradient
       xlink:href="#linearGradient1328"
       id="linearGradient1338"
       x1="-0.03761183"
       y1="-1.94916642"
       x2="3.17851591"
       y2="0.88553113"
       gradientUnits="objectBoundingBox"
       gradientTransform="scale(0.750087,1.333179)"
       spreadMethod="pad" />
    <linearGradient
       xlink:href="#linearGradient1328"
       id="linearGradient1339"
       x1="0.36680138"
       y1="-2.44045639"
       x2="3.75265837"
       y2="0.54384089"
       gradientUnits="objectBoundingBox"
       gradientTransform="scale(0.709469,1.409505)"
       spreadMethod="pad" />
    <linearGradient
       xlink:href="#linearGradient1328"
       id="linearGradient1340"
       x1="0.04684187"
       y1="-2.72269440"
       x2="3.42182636"
       y2="0.25201970"
       gradientUnits="objectBoundingBox"
       gradientTransform="scale(0.728003,1.373621)"
       spreadMethod="pad" />
    <linearGradient
       xlink:href="#linearGradient1328"
       id="linearGradient1341"
       x1="-1.84712803"
       y1="0.26557124"
       x2="1.69800758"
       y2="3.39025688"
       gradientUnits="objectBoundingBox"
       gradientTransform="scale(0.788503,1.268227)"
       spreadMethod="pad" />
    <linearGradient
       xlink:href="#linearGradient1328"
       id="linearGradient1342"
       x1="-1.68379772"
       y1="-0.30631420"
       x2="1.52004123"
       y2="2.51755214"
       gradientUnits="objectBoundingBox"
       gradientTransform="scale(0.829868,1.205010)"
       spreadMethod="pad" />
    <linearGradient
       xlink:href="#linearGradient1328"
       id="linearGradient1343"
       x1="-2.68570542"
       y1="-0.47896156"
       x2="1.08832467"
       y2="2.84747148"
       gradientUnits="objectBoundingBox"
       gradientTransform="scale(0.730598,1.368742)"
       spreadMethod="pad" />
    <linearGradient
       xlink:href="#linearGradient1328"
       id="linearGradient1344"
       x1="-1.25512826"
       y1="-0.86154187"
       x2="1.53485513"
       y2="1.59755170"
       gradientUnits="objectBoundingBox"
       gradientTransform="scale(0.653171,1.530993)"
       spreadMethod="pad" />
    <linearGradient
       xlink:href="#linearGradient1328"
       id="linearGradient1345"
       x1="-2.33549786"
       y1="-0.81657469"
       x2="0.63332802"
       y2="1.80015075"
       gradientUnits="objectBoundingBox"
       gradientTransform="scale(0.726990,1.375535)"
       spreadMethod="pad" />
    <linearGradient
       xlink:href="#linearGradient1328"
       id="linearGradient1346"
       x1="-1.97309196"
       y1="-1.22891879"
       x2="1.16061473"
       y2="1.53313291"
       gradientUnits="objectBoundingBox"
       gradientTransform="scale(0.727968,1.373686)"
       spreadMethod="pad" />
    <linearGradient
       xlink:href="#linearGradient1328"
       id="linearGradient1347"
       x1="-1.70863652"
       y1="-2.00350404"
       x2="1.37587953"
       y2="0.71519107"
       gradientUnits="objectBoundingBox"
       gradientTransform="scale(0.677332,1.476382)"
       spreadMethod="pad" />
    <linearGradient
       xlink:href="#linearGradient1328"
       id="linearGradient1348"
       x1="-2.88067079"
       y1="-1.99864471"
       x2="0.55788100"
       y2="1.03209770"
       gradientUnits="objectBoundingBox"
       gradientTransform="scale(0.743643,1.344731)"
       spreadMethod="pad" />
    <linearGradient
       xlink:href="#linearGradient1328"
       id="linearGradient1349"
       x1="-2.71850300"
       y1="-3.67126751"
       x2="1.49362040"
       y2="0.04130178"
       gradientUnits="objectBoundingBox"
       gradientTransform="scale(0.666190,1.501073)"
       spreadMethod="pad" />
    <defs
       id="defs1771">
      <linearGradient
         id="linearGradient1772">
        <stop
           style="stop-color:#f5dd97;stop-opacity:1;"
           offset="0.000000"
           id="stop1773" />
        <stop
           style="stop-color:#a75a2a;stop-opacity:1;"
           offset="1.000000"
           id="stop1774" />
      </linearGradient>
      <linearGradient
         id="linearGradient1775">
        <stop
           style="stop-color:#fff5ad;stop-opacity:1;"
           offset="0.000000"
           id="stop1776" />
        <stop
           style="stop-color:#dda200;stop-opacity:1;"
           offset="1.000000"
           id="stop1777" />
      </linearGradient>
      <linearGradient
         id="linearGradient1778">
        <stop
           style="stop-color:#3dff4f;stop-opacity:1;"
           offset="0.000000"
           id="stop1779" />
        <stop
           style="stop-color:#004500;stop-opacity:1;"
           offset="1.000000"
           id="stop1780" />
      </linearGradient>
      <linearGradient
         id="linearGradient1781">
        <stop
           style="stop-color:#ff0000;stop-opacity:1;"
           offset="0.000000"
           id="stop1782" />
        <stop
           style="stop-color:#870000;stop-opacity:1;"
           offset="1.000000"
           id="stop1783" />
      </linearGradient>
      <linearGradient
         id="linearGradient1784">
        <stop
           style="stop-color:#000;stop-opacity:1;"
           offset="0"
           id="stop1785" />
        <stop
           style="stop-color:#fff;stop-opacity:1;"
           offset="1"
           id="stop1786" />
      </linearGradient>
      <linearGradient
         xlink:href="#linearGradient1393"
         id="linearGradient1787"
         x1="0.09424146"
         y1="0.94530654"
         x2="0.81151855"
         y2="0.18749942"
         gradientUnits="objectBoundingBox"
         spreadMethod="reflect" />
      <radialGradient
         xlink:href="#linearGradient1390"
         id="radialGradient1788"
         cx="0.44680732"
         cy="0.21874997"
         fx="0.44680732"
         fy="0.21874997"
         r="0.74080765"
         gradientUnits="objectBoundingBox"
         spreadMethod="reflect" />
      <linearGradient
         xlink:href="#linearGradient1393"
         id="linearGradient1789"
         x1="-0.56919336"
         y1="-0.08011556"
         x2="1.12393117"
         y2="1.04285252"
         gradientUnits="objectBoundingBox"
         gradientTransform="scale(0.830916,1.203491)"
         spreadMethod="reflect" />
      <radialGradient
         xlink:href="#linearGradient1393"
         id="radialGradient1790"
         cx="0.50000030"
         cy="0.49999988"
         fx="0.50000030"
         fy="0.49999988"
         r="0.50000000"
         gradientUnits="objectBoundingBox"
         gradientTransform="scale(0.853975,1.170995)"
         spreadMethod="reflect" />
      <linearGradient
         xlink:href="#linearGradient1393"
         id="linearGradient1791"
         x1="-0.02876383"
         y1="1.19381380"
         x2="1.73517823"
         y2="2.36375165"
         gradientUnits="objectBoundingBox"
         gradientTransform="scale(0.747699,1.337437)"
         spreadMethod="reflect" />
      <linearGradient
         xlink:href="#linearGradient1393"
         id="linearGradient1792"
         x1="0.17173776"
         y1="0.63381582"
         x2="2.07332706"
         y2="1.89504874"
         gradientUnits="objectBoundingBox"
         gradientTransform="scale(0.829701,1.205253)"
         spreadMethod="reflect" />
      <linearGradient
         xlink:href="#linearGradient1328"
         id="linearGradient1793"
         x1="0.45706484"
         y1="0.23856834"
         x2="2.24137521"
         y2="1.42201579"
         gradientUnits="objectBoundingBox"
         gradientTransform="scale(0.795080,1.257735)"
         spreadMethod="reflect" />
      <linearGradient
         xlink:href="#linearGradient1393"
         id="linearGradient1794"
         x1="0.00000029"
         y1="-0.00000010"
         x2="1.00000048"
         y2="-0.00000010"
         gradientUnits="objectBoundingBox"
         gradientTransform="scale(0.853975,1.170995)"
         spreadMethod="reflect" />
      <linearGradient
         xlink:href="#linearGradient1393"
         id="linearGradient1795"
         x1="0.69286114"
         y1="-0.62687671"
         x2="2.53400135"
         y2="0.59426290"
         gradientUnits="objectBoundingBox"
         gradientTransform="scale(0.743763,1.344514)"
         spreadMethod="reflect" />
      <linearGradient
         xlink:href="#linearGradient1393"
         id="linearGradient1796"
         x1="0.44817454"
         y1="-1.07096219"
         x2="2.16048050"
         y2="0.06472751"
         gradientUnits="objectBoundingBox"
         gradientTransform="scale(0.750087,1.333178)"
         spreadMethod="reflect" />
      <linearGradient
         xlink:href="#linearGradient1393"
         id="linearGradient1797"
         x1="0.09424189"
         y1="0.94530618"
         x2="0.81151897"
         y2="0.18749903"
         gradientUnits="objectBoundingBox"
         spreadMethod="reflect" />
      <linearGradient
         xlink:href="#linearGradient1328"
         id="linearGradient1798"
         x1="0.55662274"
         y1="-1.80111253"
         x2="2.35350537"
         y2="-0.60932648"
         gradientUnits="objectBoundingBox"
         gradientTransform="scale(0.728003,1.373621)"
         spreadMethod="reflect" />
      <linearGradient
         xlink:href="#linearGradient1328"
         id="linearGradient1799"
         x1="-1.31164634"
         y1="1.23361516"
         x2="0.57582670"
         y2="2.48548555"
         gradientUnits="objectBoundingBox"
         gradientTransform="scale(0.788503,1.268227)"
         spreadMethod="reflect" />
      <linearGradient
         xlink:href="#linearGradient1328"
         id="linearGradient1800"
         x1="-1.19986784"
         y1="0.56853443"
         x2="0.50589478"
         y2="1.69988477"
         gradientUnits="objectBoundingBox"
         gradientTransform="scale(0.829868,1.205010)"
         spreadMethod="reflect" />
      <linearGradient
         xlink:href="#linearGradient1328"
         id="linearGradient1801"
         x1="-2.11564994"
         y1="0.55158490"
         x2="-0.10631066"
         y2="1.88428295"
         gradientUnits="objectBoundingBox"
         gradientTransform="scale(0.730598,1.368742)"
         spreadMethod="reflect" />
      <linearGradient
         xlink:href="#linearGradient1328"
         id="linearGradient1802"
         x1="-0.83370996"
         y1="-0.09970176"
         x2="0.65171105"
         y2="0.88550657"
         gradientUnits="objectBoundingBox"
         gradientTransform="scale(0.653171,1.530993)"
         spreadMethod="reflect" />
      <linearGradient
         xlink:href="#linearGradient1328"
         id="linearGradient1803"
         x1="-1.88706589"
         y1="-0.00589936"
         x2="-0.30642712"
         y2="1.04246235"
         gradientUnits="objectBoundingBox"
         gradientTransform="scale(0.726990,1.375535)"
         spreadMethod="reflect" />
      <linearGradient
         xlink:href="#linearGradient1328"
         id="linearGradient1804"
         x1="-1.49975526"
         y1="-0.37322065"
         x2="0.16866800"
         y2="0.73336446"
         gradientUnits="objectBoundingBox"
         gradientTransform="scale(0.727968,1.373686)"
         spreadMethod="reflect" />
      <linearGradient
         xlink:href="#linearGradient1328"
         id="linearGradient1805"
         x1="-1.24273002"
         y1="-1.16123796"
         x2="0.39950371"
         y2="-0.07202328"
         gradientUnits="objectBoundingBox"
         gradientTransform="scale(0.677332,1.476382)"
         spreadMethod="reflect" />
      <linearGradient
         xlink:href="#linearGradient1328"
         id="linearGradient1806"
         x1="-2.36128831"
         y1="-1.05970490"
         x2="-0.53056175"
         y2="0.15452823"
         gradientUnits="objectBoundingBox"
         gradientTransform="scale(0.743643,1.344731)"
         spreadMethod="reflect" />
      <linearGradient
         xlink:href="#linearGradient1328"
         id="linearGradient1807"
         x1="-2.08227515"
         y1="-2.52109408"
         x2="0.16031049"
         y2="-1.03369474"
         gradientUnits="objectBoundingBox"
         gradientTransform="scale(0.666190,1.501073)"
         spreadMethod="reflect" />
      <linearGradient
         xlink:href="#linearGradient1328"
         id="linearGradient1808"
         x1="-0.92001414"
         y1="-1.90153396"
         x2="2.29019189"
         y2="0.92794436"
         gradientUnits="objectBoundingBox"
         spreadMethod="pad" />
      <linearGradient
         xlink:href="#linearGradient1328"
         id="linearGradient1809"
         x1="-1.04953825"
         y1="-0.94848257"
         x2="2.13056374"
         y2="1.85446215"
         gradientUnits="objectBoundingBox"
         gradientTransform="scale(0.830916,1.203491)"
         spreadMethod="pad" />
      <linearGradient
         xlink:href="#linearGradient1328"
         id="linearGradient1810"
         x1="-0.52919781"
         y1="0.28912619"
         x2="2.78391576"
         y2="3.20930696"
         gradientUnits="objectBoundingBox"
         gradientTransform="scale(0.747699,1.337437)"
         spreadMethod="pad" />
      <linearGradient
         xlink:href="#linearGradient1328"
         id="linearGradient1811"
         x1="-0.36774811"
         y1="-0.34146821"
         x2="3.20390081"
         y2="2.80658650"
         gradientUnits="objectBoundingBox"
         gradientTransform="scale(0.829701,1.205253)"
         spreadMethod="pad" />
      <linearGradient
         xlink:href="#linearGradient1328"
         id="linearGradient1812"
         x1="-0.04914929"
         y1="-0.67656577"
         x2="3.30222154"
         y2="2.27733541"
         gradientUnits="objectBoundingBox"
         gradientTransform="scale(0.795080,1.257735)"
         spreadMethod="pad" />
      <linearGradient
         xlink:href="#linearGradient1328"
         id="linearGradient1813"
         x1="-0.25892147"
         y1="-1.00649130"
         x2="2.94204164"
         y2="1.81484020"
         gradientUnits="objectBoundingBox"
         gradientTransform="scale(0.853975,1.170995)"
         spreadMethod="pad" />
      <linearGradient
         xlink:href="#linearGradient1328"
         id="linearGradient1814"
         x1="0.17052449"
         y1="-1.57115757"
         x2="3.62863517"
         y2="1.47682381"
         gradientUnits="objectBoundingBox"
         gradientTransform="scale(0.743763,1.344514)"
         spreadMethod="pad" />
      <linearGradient
         xlink:href="#linearGradient1328"
         id="linearGradient1815"
         x1="-0.03761183"
         y1="-1.94916642"
         x2="3.17851591"
         y2="0.88553113"
         gradientUnits="objectBoundingBox"
         gradientTransform="scale(0.750087,1.333179)"
         spreadMethod="pad" />
      <linearGradient
         xlink:href="#linearGradient1328"
         id="linearGradient1816"
         x1="0.36680138"
         y1="-2.44045639"
         x2="3.75265837"
         y2="0.54384089"
         gradientUnits="objectBoundingBox"
         gradientTransform="scale(0.709469,1.409505)"
         spreadMethod="pad" />
      <linearGradient
         xlink:href="#linearGradient1328"
         id="linearGradient1817"
         x1="0.04684187"
         y1="-2.72269440"
         x2="3.42182636"
         y2="0.25201970"
         gradientUnits="objectBoundingBox"
         gradientTransform="scale(0.728003,1.373621)"
         spreadMethod="pad" />
      <linearGradient
         xlink:href="#linearGradient1328"
         id="linearGradient1818"
         x1="-1.84712803"
         y1="0.26557124"
         x2="1.69800758"
         y2="3.39025688"
         gradientUnits="objectBoundingBox"
         gradientTransform="scale(0.788503,1.268227)"
         spreadMethod="pad" />
      <linearGradient
         xlink:href="#linearGradient1328"
         id="linearGradient1819"
         x1="-1.68379772"
         y1="-0.30631420"
         x2="1.52004123"
         y2="2.51755214"
         gradientUnits="objectBoundingBox"
         gradientTransform="scale(0.829868,1.205010)"
         spreadMethod="pad" />
      <linearGradient
         xlink:href="#linearGradient1328"
         id="linearGradient1820"
         x1="-2.68570542"
         y1="-0.47896156"
         x2="1.08832467"
         y2="2.84747148"
         gradientUnits="objectBoundingBox"
         gradientTransform="scale(0.730598,1.368742)"
         spreadMethod="pad" />
      <linearGradient
         xlink:href="#linearGradient1328"
         id="linearGradient1821"
         x1="-1.25512826"
         y1="-0.86154187"
         x2="1.53485513"
         y2="1.59755170"
         gradientUnits="objectBoundingBox"
         gradientTransform="scale(0.653171,1.530993)"
         spreadMethod="pad" />
      <linearGradient
         xlink:href="#linearGradient1328"
         id="linearGradient1822"
         x1="-2.33549786"
         y1="-0.81657469"
         x2="0.63332802"
         y2="1.80015075"
         gradientUnits="objectBoundingBox"
         gradientTransform="scale(0.726990,1.375535)"
         spreadMethod="pad" />
      <linearGradient
         xlink:href="#linearGradient1328"
         id="linearGradient1823"
         x1="-1.97309196"
         y1="-1.22891879"
         x2="1.16061473"
         y2="1.53313291"
         gradientUnits="objectBoundingBox"
         gradientTransform="scale(0.727968,1.373686)"
         spreadMethod="pad" />
      <linearGradient
         xlink:href="#linearGradient1328"
         id="linearGradient1824"
         x1="-1.70863652"
         y1="-2.00350404"
         x2="1.37587953"
         y2="0.71519107"
         gradientUnits="objectBoundingBox"
         gradientTransform="scale(0.677332,1.476382)"
         spreadMethod="pad" />
      <linearGradient
         xlink:href="#linearGradient1328"
         id="linearGradient1825"
         x1="-2.88067079"
         y1="-1.99864471"
         x2="0.55788100"
         y2="1.03209770"
         gradientUnits="objectBoundingBox"
         gradientTransform="scale(0.743643,1.344731)"
         spreadMethod="pad" />
      <linearGradient
         xlink:href="#linearGradient1328"
         id="linearGradient1826"
         x1="-2.71850300"
         y1="-3.67126751"
         x2="1.49362040"
         y2="0.04130178"
         gradientUnits="objectBoundingBox"
         gradientTransform="scale(0.666190,1.501073)"
         spreadMethod="pad" />
    </defs>
    <sodipodi:namedview
       id="namedview1827" />
  </defs>
  <sodipodi:namedview
     id="base" />
  <path
     style="fill:#000000;fill-rule:evenodd;stroke:none;stroke-opacity:1;stroke-width:1pt;stroke-linejoin:miter;stroke-linecap:butt;fill-opacity:0.805085;"
     d="M -1.91939 237.044 C -1.91939 237.044 42.2265 421.305 65.2591 452.015 C 88.2918 482.726 249.52 434.741 251.44 432.821 C 253.359 430.902 262.956 459.693 303.263 448.177 C 343.57 436.66 393.474 427.063 395.394 402.111 C 397.313 377.159 343.57 160.269 343.57 160.269 L 220.729 267.754 L -1.91939 237.044 z "
     id="path1863"
     transform="matrix(1.154083,0.000000,0.000000,1.154083,23.52178,-92.33856)" />
  <path
     style="fill:url(#linearGradient1318);fill-rule:evenodd;stroke:#000000;stroke-opacity:1;stroke-width:1pt;stroke-linejoin:miter;stroke-linecap:butt;fill-opacity:0.711864;"
     d="M 234.456 421.661 C 182.972 395.391 73.016 446.032 73.016 446.032 L -3.17461 231.745 C -3.17461 231.745 139.73 146.321 190.477 197.482 L 234.456 421.661 z "
     id="path1861"
     sodipodi:nodetypes="ccccc"
     transform="matrix(1.154083,0.000000,0.000000,1.154083,23.52178,-92.33856)" />
  <path
     style="fill:url(#linearGradient1319);fill-rule:evenodd;stroke:black;stroke-opacity:1;stroke-width:1pt;stroke-linejoin:miter;stroke-linecap:butt;fill-opacity:0.711864;"
     d="M 234.921 422.222 C 268.255 396.825 392.064 400 392.064 400 L 346.033 157.142 C 346.033 157.142 207.937 139.682 190.476 196.825 L 234.921 422.222 z "
     id="path1862"
     sodipodi:nodetypes="ccccc"
     transform="matrix(1.154083,0.000000,0.000000,1.154083,23.52178,-92.33856)" />
  <g
     id="g1954"
     transform="matrix(0.557844,-6.378689e-2,6.892560e-2,0.602784,-31.80908,349.0871)">
    <rect
       style="font-size:12;fill:#581900;fill-opacity:0.144068;fill-rule:evenodd;stroke:#000000;stroke-width:0.729502;stroke-opacity:0.882353;"
       id="rect1459"
       width="251.371704"
       height="338.762728"
       x="602.879619"
       y="-200.912782"
       transform="matrix(0.993391,-0.114777,0.103397,0.994640,0.000000,0.000000)" />
    <path
       sodipodi:type="arc"
       style="font-size:12;fill:url(#linearGradient1166);fill-rule:evenodd;stroke:#4b5679;stroke-width:8.895;stroke-opacity:0.881356;"
       id="path1152"
       d="M 273.016449 113.491272 A 61.111244 61.111240 0 1 0 150.793976,113.491272 A 61.1112 61.1112 0 1 0 273.016 113.491 L 211.905212 113.491272 z"
       sodipodi:cx="211.905212"
       sodipodi:cy="113.491272"
       sodipodi:rx="61.111244"
       sodipodi:ry="61.111240"
       transform="matrix(0.516614,-5.969001e-2,5.563369e-2,0.535180,586.0298,-277.8658)" />
    <rect
       style="font-size:12;fill:url(#linearGradient1165);fill-rule:evenodd;stroke:#4b5679;stroke-width:4.70528;stroke-opacity:0.881356;"
       id="rect1154"
       width="65.212945"
       height="108.466871"
       x="272.889030"
       y="183.861582"
       rx="15.4065238"
       transform="matrix(0.993391,-0.114777,0.103397,0.994640,381.8212,-345.6381)" />
    <rect
       style="font-size:12;fill:url(#linearGradient1164);fill-rule:evenodd;stroke:#4b5679;stroke-width:4.7059;stroke-opacity:0.881356;"
       id="rect1155"
       width="18.629109"
       height="71.693645"
       x="323.207731"
       y="-38.235110"
       rx="4.40111788"
       transform="matrix(0.831815,0.555053,-0.576204,0.817306,381.8212,-345.6381)" />
    <rect
       style="font-size:12;fill:url(#linearGradient1163);fill-rule:evenodd;stroke:#4b5679;stroke-width:4.7152;stroke-opacity:0.881356;"
       id="rect1156"
       width="18.896710"
       height="70.958211"
       x="23.710750"
       y="327.812314"
       rx="4.46433749"
       transform="matrix(0.626380,-0.779518,0.718361,0.695670,381.8212,-345.6381)" />
    <rect
       style="font-size:12;fill:url(#linearGradient1162);fill-rule:evenodd;stroke:#4b5679;stroke-width:4.71229;stroke-opacity:0.881356;"
       id="rect1157"
       width="18.532543"
       height="72.263059"
       x="314.666958"
       y="243.907711"
       rx="4.37830382"
       transform="matrix(0.958553,-0.284913,0.209396,0.977831,381.8212,-345.6381)" />
    <rect
       style="font-size:12;fill:url(#linearGradient1161);fill-rule:evenodd;stroke:#4b5679;stroke-width:4.71019;stroke-opacity:0.881356;"
       id="rect1158"
       width="18.473382"
       height="72.429503"
       x="361.091964"
       y="232.275392"
       rx="4.36432628"
       transform="matrix(0.995914,-9.031224e-2,2.501627e-2,0.999687,381.8212,-345.6381)" />
    <rect
       style="font-size:12;fill:url(#linearGradient569);fill-rule:evenodd;stroke:#4b5679;stroke-width:4.70918;stroke-opacity:0.881356;"
       id="rect1159"
       width="32.003493"
       height="134.072734"
       x="298.515987"
       y="280.260027"
       rx="7.56080953"
       transform="matrix(0.996065,-8.862262e-2,3.006175e-2,0.999548,381.8212,-345.6381)" />
    <rect
       style="font-size:12;fill:url(#linearGradient1317);fill-rule:evenodd;stroke:#4b5679;stroke-width:4.71997;stroke-opacity:0.881356;"
       id="rect1160"
       width="32.147626"
       height="134.083422"
       x="276.996791"
       y="280.883271"
       rx="7.59486039"
       transform="matrix(0.996055,-8.873984e-2,0.199568,0.979884,381.8212,-345.6381)" />
  </g>
  <rect
     style="font-size:12;fill:#fff5ec;fill-opacity:0.586207;fill-rule:evenodd;stroke:#000000;stroke-width:0.488452;"
     id="rect731"
     width="161.105225"
     height="228.730804"
     x="32.9112854"
     y="194.591873"
     transform="matrix(0.954822,-0.297179,0.214579,0.976707,0.000000,0.000000)"
     ry="0.00000000" />
  <path
     style="font-size:12;fill:#966007;fill-rule:evenodd;stroke:#4b3005;stroke-width:1pt;"
     d="M 198.958 333.729 C 208.404 333.924 212.769 333.925 219.088 333.925 C 215.329 331.287 214.419 325.303 214.584 322.513 C 215.401 309.65 211.831 278.357 217.51 260.087 C 222.792 241.347 230.012 231.441 236.371 223.001 C 242.73 214.562 227.986 225.528 229.187 225.86 C 227.684 212.706 242.545 179.858 274.517 176.529 C 277.396 174.226 242.947 179.75 232.847 199.51 C 237.803 164.026 254.495 138.107 281.534 135.858 C 289.555 135.168 258.349 136.633 245.84 154.02 C 242.944 157.661 261.014 126.952 267.817 112.744 C 269.75 108.536 242.294 150.517 241.321 159.604 C 239.617 157.924 225.548 204.82 227.099 212.304 C 227.589 214.584 214.039 256.902 210.692 267.888 C 209.496 270.627 208.76 220.076 207.718 204.718 C 206.744 194.442 223.303 166.39 235.457 145.766 C 235.81 145.17 234.088 147.491 232.385 148.922 C 230.682 150.353 206.532 191.097 205.47 198.347 C 204.857 201.667 202.11 169.68 205.413 147.42 C 205.961 143.388 217.898 120.829 234.788 101.167 C 240.653 94.7296 206.977 125.155 202.042 146.561 C 201.074 149.912 201.53 142.129 203.381 124.971 C 204.681 112.781 207.746 104.709 234.49 75.907 C 244.857 64.6471 210.172 98.0551 202.029 111.455 C 200.711 113.644 195.883 84.5611 188.723 67.2729 C 187.85 64.8795 199.161 105.719 197.155 107.143 C 195.149 108.568 181.042 73.3418 179.173 74.6698 C 177.304 75.9978 194.248 111.587 198.64 116.485 C 199.94 118.063 199.959 146.641 198.56 147.636 C 197.16 148.631 191.806 135.839 190.739 136.597 C 189.671 137.356 189.731 111.487 189.484 112.271 C 187.683 117.785 187.597 126.975 188.083 134.072 C 188.973 143.354 167.708 107.542 168.802 112.824 C 170.173 120.384 201.11 155.151 198.403 157.139 C 197.726 157.636 201.142 190.916 200.072 187.829 C 198.534 183.953 175.156 147.603 176.043 152.669 C 176.267 156.717 201.304 192.685 197.159 187.956 C 194.988 185.688 157.577 153.9 157.189 162.428 C 156.953 160.187 197.631 189.344 200.508 195.821 C 203.007 200.494 206.323 225.628 204.293 237.438 C 203.494 241.678 196.343 217.804 186.213 212.12 C 183.962 210.832 177.485 197.539 170.328 187.753 C 164.918 183.307 179.033 204.024 182.765 217.077 C 184.426 223.217 129.821 193.231 150.597 207.327 C 177.126 220.307 199.887 227.847 203.341 252.655 C 206.665 278.519 205.349 304.415 205.578 314.481 C 205.814 325.042 205.603 331.137 198.958 333.729 z "
     id="path663"
     sodipodi:nodetypes="ccssscccssscssssssssssssssssssssssssssssscscssc"
     transform="matrix(0.853424,-0.265621,0.160308,0.729680,-43.19069,182.1156)" />
  <path
     style="font-size:12;fill:url(#linearGradient1349);fill-rule:evenodd;stroke:#37982a;"
     d="M 257.591 269.818 C 257.591 269.687 257.591 269.557 257.591 269.427 C 257.591 270.652 257.509 269.92 259.154 267.863 C 260.194 266.485 261.216 265.156 262.672 263.954 C 264.172 262.86 265.993 261.903 267.363 261.218 C 269.586 261.01 271.151 260.272 274.008 259.264 C 274.881 260.559 274.79 261.637 274.79 263.564 C 275.218 266.042 276.29 265.933 278.698 266.3 C 281.388 266.716 283.888 267.18 286.516 267.472 C 288.532 268.086 291.732 268.391 294.334 269.036 C 297.15 270.105 297.755 269.94 297.852 273.336 C 297.664 275.771 297.288 275.681 294.725 275.681 C 292.191 275.681 290.493 275.511 288.861 274.899 C 286.295 274.991 285.827 275.14 285.734 277.635 C 285.3 280.067 285.006 281.155 282.998 282.717 C 280.771 283.697 278.845 284.191 276.353 284.28 C 275.182 284.005 275.103 283.019 274.399 281.935 C 272.436 280.253 272.72 280.372 270.49 280.372 C 268.009 280.372 265.126 280.138 263.454 281.153 C 261.813 281.581 260.332 282.757 258.763 283.499 C 256.333 283.381 255.859 282.66 255.246 280.762 C 254.429 279.213 254.039 277.682 253.682 275.681 C 254.871 274.812 255.884 273.625 256.809 272.163 C 257.602 271.899 257.343 271.138 257.591 269.818 z "
     id="path664"
     transform="matrix(0.853424,-0.265621,0.160308,0.729680,-73.18581,154.2753)" />
  <path
     style="font-size:12;fill:url(#linearGradient1348);fill-rule:evenodd;stroke:#37982a;"
     d="M 256.027 174.833 C 256.158 174.703 256.288 174.573 256.418 174.443 L 256.027 174.833 C 256.158 174.703 256.288 174.573 256.418 174.443 L 256.027 174.833 C 258.03 172.763 258.518 172.052 259.936 170.143 C 261.633 169.159 263.996 168.248 266.19 167.407 C 268.561 167.051 270.402 166.532 272.835 165.843 C 276.598 165.858 281.916 164.729 284.171 167.798 C 285.599 169.735 286.793 171.429 287.298 173.661 C 287.925 174.497 287.896 175.782 288.861 176.397 C 290.475 177.96 292.777 178.729 295.115 179.915 C 298.088 183.84 299.806 185.131 299.806 189.687 C 299.03 192.423 297.732 193.728 295.115 194.768 C 293.188 195.916 290.851 195.55 288.47 195.55 C 286.435 195.43 285.606 195.072 284.953 193.205 C 283.53 190.313 283.389 187.925 283.389 184.606 C 280.92 181.432 279.868 190.516 279.48 191.641 C 279.48 193.843 279.616 196.681 279.089 198.286 C 277.665 200.158 275.368 199.826 272.835 199.85 C 270.886 199.256 269.445 197.967 268.535 196.723 C 267.267 194.407 267.634 193.617 268.535 191.251 C 269.954 190.234 271.193 189.955 271.663 188.514 C 270.823 186.259 269.481 184.615 267.363 184.215 C 265.156 185.81 264.326 186.889 261.5 186.951 C 258.225 187.518 255.289 187.087 252.9 185.778 C 251.203 184.519 251.337 183.211 251.337 180.697 C 252.298 178.727 252.929 177.404 254.073 176.397 C 254.073 175.247 253.961 176.073 256.027 174.833 z "
     id="path666"
     transform="matrix(0.853424,-0.265621,0.160308,0.729680,-43.19069,182.1156)" />
  <path
     style="font-size:12;fill:url(#linearGradient1347);fill-rule:evenodd;stroke:#37982a;"
     d="M 222.802 185.387 C 222.933 185.387 223.063 185.387 223.193 185.387 C 221.881 185.387 222.711 185.479 224.757 183.433 C 227.057 181.714 228.811 179.728 231.402 178.742 C 231.402 180.881 231.286 179.191 236.092 176.788 C 238.092 176.748 241.031 176.056 242.737 176.788 C 244.185 178.333 246.877 179.655 248.21 181.478 C 248.937 183.331 249.632 184.784 251.337 185.387 C 254.495 184.526 257.225 182.528 259.936 180.697 C 262.177 179.718 263.285 179.162 265.799 179.133 C 269.598 179.95 272.906 179.743 274.399 183.042 C 275.348 185.233 275.839 187.241 275.18 189.687 C 272.688 192.87 270.836 194.15 266.972 195.159 C 264.837 195.159 262.327 194.515 263.845 196.723 C 265.439 198.557 266.464 199.726 266.581 202.195 C 264.96 204.019 263.995 204.533 261.891 205.322 C 260.047 206.001 257.922 206.503 256.027 205.713 C 254.746 203.206 253.52 199.897 251.337 198.286 C 249.344 200.279 248.037 201.993 247.037 204.15 C 246.734 206.699 245.979 207.679 243.91 209.231 C 241.049 211.138 238.929 211.162 235.311 211.186 C 233.418 210.622 232.993 209.619 232.184 207.668 C 231.661 206.025 231.793 204.069 231.793 202.195 C 228.735 201.901 226.041 201.628 223.193 202.586 C 221.905 203.901 220.988 204.511 218.503 204.541 C 217.669 203.241 216.606 201.601 216.157 199.459 C 216.157 197.035 216.535 194.863 217.721 192.814 C 219.145 191.219 220.899 189.444 222.411 188.124 C 222.411 187.084 222.569 186.633 222.802 185.387 z "
     id="path667"
     transform="matrix(0.853424,-0.265621,0.160308,0.729680,-43.19069,182.1156)" />
  <path
     style="font-size:12;fill:url(#linearGradient1346);fill-rule:evenodd;stroke:#37982a;"
     d="M 237.265 136.136 C 237.265 136.006 237.265 135.876 237.265 135.745 C 237.481 135.832 238.645 135.866 239.61 135.745 C 241.191 137.092 242.597 138.891 243.519 140.827 C 245.049 142.835 246.415 144.218 248.601 145.517 C 251.89 145.919 253.457 145.731 256.418 143.954 C 258.668 142.154 260.02 140.742 262.672 140.436 C 266.797 140.436 270.024 140.373 273.617 142.39 C 274.826 144.422 275.512 145.83 274.79 148.254 C 273.227 150.522 273.662 150.581 275.571 152.162 C 277.833 153.114 279.326 153.748 279.871 156.071 C 279.718 159.228 278.096 160.613 275.571 162.325 C 272.633 164.743 270.868 166.118 266.972 166.234 C 264.421 165.475 263.71 164.018 263.063 161.544 C 263.246 164.099 263.845 166.259 263.845 168.97 C 262.985 171.121 261.171 171.311 258.763 171.706 C 255.946 172.3 253.136 172.467 250.164 172.488 C 248.253 171.73 247.436 169.111 245.864 167.016 C 244.396 166.526 243.728 167.773 242.346 168.97 C 240.381 171.517 240.472 171.819 236.874 172.097 C 234.165 172.097 232.239 171.701 229.838 171.316 C 228.001 170.167 226.466 169.057 225.539 167.016 C 225.539 164.518 225.714 164.523 227.102 162.325 C 229.98 160.767 233.516 159.752 235.311 157.635 C 236.104 155.405 235.687 153.786 234.529 151.772 C 232.936 149.014 229.183 146.963 227.884 143.954 C 228.81 141.545 230.212 139.73 232.184 138.091 C 233.982 137.509 235.041 136.909 237.265 136.136 z "
     id="path668"
     transform="matrix(0.853424,-0.265621,0.160308,0.729680,-43.19069,182.1156)" />
  <path
     style="font-size:12;fill:url(#linearGradient1345);fill-rule:evenodd;stroke:#37982a;"
     d="M 265.018 126.364 C 265.706 126.14 268.867 124.924 270.49 124.41 C 273.141 123.175 275.085 121.862 277.917 121.674 C 283.732 122.901 289.437 125.333 295.115 127.537 C 296.961 128.897 297.73 129.57 297.852 131.837 C 295.704 133.387 292.853 135.002 292.379 137.7 C 295.418 140.069 299.435 142.153 302.151 144.736 C 302.514 146.405 302.648 147.428 301.76 149.426 C 298.948 152.056 296.904 153.614 293.552 155.289 C 290.342 156.343 288.585 156.185 285.734 154.508 C 283.568 152.089 281.544 149.967 281.044 146.69 C 280.352 144.864 280.305 143.317 278.698 142.781 C 275.69 143.812 272.601 145.185 269.708 145.908 C 268.582 147.525 266.76 148.1 264.236 148.644 C 261.1 148.644 259.158 148.197 256.418 146.69 C 253.936 143.478 251.057 140.433 250.555 136.918 C 252.818 135.839 255.504 135.327 254.855 133.009 C 251.464 130.486 248.207 128.244 245.864 124.801 C 244.905 123.096 244.398 123.015 246.255 122.065 C 249.018 120.508 252.37 118.105 254.464 117.374 C 256.93 116.757 257.555 118.082 259.154 120.11 C 259.852 121.683 260.882 123.577 261.891 124.41 C 262.268 125.291 263.637 125.633 265.018 126.364 z "
     id="path669"
     transform="matrix(0.853424,-0.265621,0.160308,0.729680,-43.19069,182.1156)" />
  <path
     style="font-size:12;fill:url(#linearGradient1344);fill-rule:evenodd;stroke:#37982a;"
     d="M 228.275 117.374 C 229.229 117.493 232.743 118.105 234.92 118.156 C 236.614 118.156 238.307 118.156 240.001 118.156 C 242.545 116.195 244.559 114.046 246.646 112.683 C 249.028 112.045 249.849 112.434 251.728 114.247 C 253.462 115.835 255.446 118.09 257.591 119.328 C 260.283 120.094 262.412 120.892 265.408 120.892 C 267.444 120.62 267.629 119.322 268.926 117.765 C 271.786 115.132 272.905 114.324 276.744 115.029 C 279.67 117.72 281.317 118.911 281.435 122.846 C 278.986 126.964 274.458 128.852 270.099 131.055 C 268.018 133.135 269.053 132.101 266.972 134.182 C 263.95 134.879 258.888 136.756 256.418 135.355 C 254.74 134.167 252.683 132.867 250.946 131.837 C 251.151 134.414 252.424 136.251 253.291 138.482 C 253.817 140.936 254.671 143.045 253.682 145.517 C 251.795 147.913 249.404 149.005 246.255 149.426 C 243.299 149.215 241.81 146.577 240.001 144.345 C 238.229 142.844 235.65 139.529 233.747 138.872 C 230.962 140.42 228.732 142.352 225.929 143.954 C 223.107 143.919 220.858 143.692 218.503 142.39 C 216.646 139.808 214.318 136.918 213.421 133.791 C 213.831 130.923 217.95 130.97 220.457 130.273 C 222.892 130.016 227.052 130.16 229.056 129.491 C 229.056 126.93 229.081 125.361 227.884 123.237 C 226.321 121.554 225.969 121.111 225.929 118.938 C 226.611 118.71 227.165 118.114 228.275 117.374 z "
     id="path670"
     transform="matrix(0.853424,-0.265621,0.160308,0.729680,-50.23481,192.2307)" />
  <path
     style="font-size:12;fill:url(#linearGradient1343);fill-rule:evenodd;stroke:#37982a;"
     d="M 261.109 97.439 C 261.748 97.5303 265.171 98.0169 266.972 98.2208 C 269.936 99.1195 272.092 99.4035 273.226 101.348 C 274.516 102.121 275.192 102.319 277.135 101.348 C 279.679 100.5 282.04 99.408 284.953 99.0025 C 287.557 99.0025 288.825 99.0966 290.816 100.566 C 291.9 101.957 291.988 103.864 291.988 106.038 C 291.769 108.416 290.918 108.662 289.252 109.556 C 288.057 110.603 288.738 110.999 289.643 112.293 C 290.704 113.501 291.666 114.058 292.379 115.029 C 292.379 119.262 292.462 117.988 290.034 121.283 C 289.308 121.801 288.338 123.108 287.298 123.628 C 288.26 120.741 284.311 125.745 282.998 126.755 C 280.758 126.279 279.848 124.777 277.917 122.846 C 276.765 121.393 275.696 119.37 274.399 118.938 C 271.647 118.938 271.096 119.408 269.317 121.283 C 266.422 122.512 264.4 123.115 261.109 123.237 C 258.124 123.164 256.402 122.366 253.682 121.283 C 251.549 119.796 249.948 118.448 248.601 116.201 C 250.4 114.594 253.502 112.873 255.246 111.511 C 256.139 110.983 256.838 110.246 256.027 109.165 C 253.989 107.889 252.521 107.318 250.555 106.038 C 248.355 104.965 247.517 104.155 247.428 101.739 C 248.554 99.4585 250.28 98.6327 252.509 97.439 C 254.596 96.8312 256.223 95.7639 257.982 96.2664 C 258.624 97.3897 259.619 97.2949 261.109 97.439 z "
     id="path671"
     transform="matrix(0.853424,-0.265621,0.160308,0.729680,-53.57431,183.5190)" />
  <path
     style="font-size:12;fill:url(#linearGradient1342);fill-rule:evenodd;stroke:#37982a;"
     d="M 219.675 102.13 C 222.165 97.3615 223.481 94.4147 227.102 90.794 C 229.802 88.9856 231.538 88.8396 234.92 88.8396 C 236.905 89.0732 237.413 90.943 238.047 92.7485 C 239.006 95.1904 239.219 97.6849 239.219 100.566 C 239.219 101.774 239.119 103.038 239.61 103.693 C 241.104 104.923 241.764 104.866 243.91 104.866 C 245.568 104.818 246.445 104.028 247.428 105.257 C 250.376 107.533 253.85 109.738 254.464 113.465 C 254.464 115.491 254.566 116.212 253.291 117.765 C 252.105 119.459 251.096 120.095 251.728 121.674 C 254.019 123 257.647 123.992 259.154 125.192 C 259.695 127.355 258.007 128.442 256.027 129.491 C 252.886 130.143 251.065 129.872 248.601 127.928 C 247.089 125.991 246.693 124.967 246.646 122.455 C 246.646 120.539 247.001 118.576 245.864 117.765 C 243.551 118.696 241.943 119.997 240.392 122.065 C 239.913 124.378 239.496 125.719 237.656 126.755 C 234.435 126.755 232.025 126.563 229.056 125.582 C 227.184 125.048 226.782 124.865 225.929 122.846 C 225.216 121.624 225.016 121.074 223.584 120.501 C 226.027 120.501 228.206 120.205 230.62 120.11 C 232.172 117.781 231.292 123.438 231.402 113.856 C 231.402 111.45 231.791 111.12 229.447 111.12 C 227.781 111.328 226.926 112.983 225.539 114.247 C 223.765 115.823 222.708 117.032 220.848 118.938 C 219.114 119.576 216.983 119.411 215.767 118.547 C 214.165 117.084 213.12 115.707 212.639 113.465 C 213.682 110.337 216.1 108.147 219.284 106.82 C 221.275 105.903 222.076 105.922 222.411 103.693 C 221.514 103.469 220.468 102.625 219.675 102.13 z "
     id="path672"
     transform="matrix(0.853424,-0.265621,0.160308,0.729680,-43.19069,182.1156)" />
  <path
     style="font-size:12;fill:url(#linearGradient1341);fill-rule:evenodd;stroke:#37982a;"
     d="M 204.04 79.4584 C 204.17 79.4584 204.301 79.4584 204.431 79.4584 C 203.779 79.4584 205.734 79.4584 206.385 79.4584 C 208.8 79.8897 211.275 79.8494 213.812 79.8494 C 216.993 77.743 217.527 77.474 218.894 73.9861 C 220.543 71.132 221.355 69.9866 224.757 69.6864 C 226.519 70.1117 226.143 70.3273 226.711 72.0318 C 226.711 73.8417 225.618 78.1996 227.884 78.6767 C 230.522 78.3785 232.471 77.1991 234.92 76.7223 C 237.249 76.1346 239.354 75.7119 241.565 76.7223 C 243.844 78.7812 244.778 79.8053 245.473 82.5855 C 245.473 83.778 245.435 85.0425 245.083 85.7126 C 243.074 87.8533 242.254 88.2925 239.219 88.8396 C 237.208 89.2888 234.815 88.974 232.965 89.6214 C 233.729 91.7601 235.498 93.0243 236.483 95.0937 C 237.803 96.383 238.393 97.8174 237.656 99.7843 C 235.233 102.134 233.162 104.484 229.838 104.866 C 227.036 104.165 225.84 102.876 223.193 100.957 C 222.319 98.886 220.964 97.0172 220.066 95.0937 C 219.279 93.8928 218.774 93.2747 217.33 93.1393 C 215.231 94.9124 212.848 96.826 211.076 97.8299 C 208.043 97.8299 206.102 97.7083 203.258 96.6572 C 201.382 95.7322 200.806 94.9533 201.304 92.7485 C 204.271 90.9436 208.198 89.9398 211.467 88.8396 C 211.802 88.0029 212.076 86.9153 211.467 86.1034 C 209.792 84.8929 208.254 84.6563 207.167 83.7581 C 205.477 83.2131 205.018 81.2954 204.04 79.4584 z "
     id="path673"
     transform="matrix(0.853424,-0.265621,0.160308,0.729680,-35.10347,173.5040)" />
  <path
     style="font-size:12;fill:url(#linearGradient1340);fill-rule:evenodd;stroke:#37982a;"
     d="M 156.743 224.866 C 157.291 224.34 161.215 220.444 162.998 219.785 C 165.009 219.737 166.917 219.577 168.079 218.221 C 168.611 216.045 169.027 214.029 168.47 211.967 C 165.843 209.34 160.692 206.071 160.261 202.195 C 163.663 200.815 167.287 201.148 170.815 202.586 C 172.853 202.943 174.317 203.097 175.115 204.931 C 175.871 207.892 176.185 210.507 178.633 212.358 C 180.434 212.989 181.976 213.473 183.714 212.749 C 183.773 210.215 184.457 208.36 184.887 206.104 C 186.415 204.575 187.992 204.931 190.359 204.931 C 191.592 205.952 193.255 206.816 195.05 207.277 C 196.334 208.094 196.222 207.926 196.222 209.622 C 195.671 210.634 195.601 211.726 195.05 212.749 C 197.108 213.161 192.977 214.947 191.532 215.876 C 189.718 216.977 188.522 217.717 189.187 219.785 C 190.748 221.429 191.957 222.161 194.268 222.912 C 195.138 224.679 195.126 226.73 194.659 229.166 C 192.321 231.192 190.982 232.222 188.014 232.684 C 184.773 233.382 182.334 233.03 179.415 231.511 C 178.162 230.391 176.572 228.971 175.506 229.557 C 175.449 232.562 174.991 233.467 172.77 235.42 C 170.396 235.42 168.567 235.606 166.515 234.638 C 164.956 233.869 162.489 233.227 161.434 232.293 C 161.28 230.249 160.747 230.375 158.698 230.339 C 155.89 230.339 153.219 230.515 150.489 230.73 C 149.151 231.231 147.165 231.315 146.19 230.73 C 144.403 227.751 148.929 224.689 150.489 222.521 C 154.211 220.729 155.252 220.176 159.089 220.176 C 160.393 219.349 161.327 218.14 161.434 220.176 C 160.383 221.206 159.383 222.558 158.698 223.694 L 161.434 220.176 C 160.383 221.206 159.383 222.558 156.743 224.866 z "
     id="path674"
     transform="matrix(0.853424,-0.265621,0.160308,0.729680,-43.19069,182.1156)" />
  <path
     style="font-size:12;fill:url(#linearGradient1339);fill-rule:evenodd;stroke:#37982a;"
     d="M 138.763 208.058 C 138.734 207.45 138.307 204.904 137.59 203.368 C 136.484 200.57 135.213 199.195 134.072 196.723 C 134.072 194.927 134.495 194.473 135.636 193.205 C 137.185 191.366 138.887 190.975 141.108 190.469 C 143.499 191.325 144.927 191.788 146.581 193.596 C 147.364 195.904 147.077 195.941 149.708 195.941 C 152.815 195.689 154.122 195.31 155.962 192.814 C 158.567 191.328 160.779 189.517 163.388 188.124 C 165.43 187.619 167.4 187.434 169.252 188.514 C 171.969 189.666 173.901 190.589 175.897 192.423 C 177.991 193.987 178.633 194.083 178.633 196.723 C 178.375 200.034 176.756 200.777 173.942 202.195 C 172.225 204.134 173.229 204.258 173.942 206.104 C 176.318 206.884 178.291 207.668 180.978 207.668 C 181.708 208.741 182.907 210.289 184.105 211.967 C 184.562 213.835 185.311 215.561 185.669 217.44 C 183.74 218.847 181.881 220.086 179.024 220.567 C 174.797 220.146 170.464 218.703 167.297 217.049 C 164.892 217.049 162.542 216.959 160.261 217.44 C 158.008 217.815 156.883 218.695 155.18 220.176 C 152.98 221.119 151.56 221.069 149.317 220.176 C 146.764 219.629 145.485 219.008 143.453 217.049 C 142.27 215.564 141.621 214.223 140.717 212.749 C 138.803 210.947 138.856 210.992 138.763 208.058 z "
     id="path676"
     transform="matrix(0.853424,-0.265621,0.160308,0.729680,-43.19069,182.1156)" />
  <path
     style="font-size:12;fill:url(#linearGradient1338);fill-rule:evenodd;stroke:#37982a;"
     d="M 159.48 172.488 C 159.61 172.488 159.74 172.488 159.87 172.488 C 159.219 172.488 161.173 172.488 161.825 172.488 C 164.674 172.507 166.327 172.393 168.47 174.052 C 171.408 174.914 173.916 175.224 177.069 175.224 C 179.445 175.224 180.734 175.503 182.151 174.052 C 184.054 172.672 186.394 171.13 188.796 169.752 C 190.054 168.997 191.587 170.855 192.705 172.097 C 195.459 174.852 198.546 177.521 199.349 181.478 C 200.07 183.639 200.644 185.904 200.131 188.124 C 198.32 190.166 196.498 190.599 194.659 192.032 C 195.387 194.116 196.934 195.355 198.568 197.114 C 199.524 199.929 199.443 201.754 198.177 204.541 C 196.045 206.795 193.837 206.699 190.75 206.104 C 187.355 205.026 186.264 204.836 184.496 201.804 C 183.324 199.063 182.9 197.133 184.105 194.378 C 184.821 193.003 185.279 191.512 184.496 190.469 C 181.894 191.553 179.957 192.828 178.242 194.768 C 177.172 195.941 174.838 197.253 173.551 198.677 C 172.531 199.29 171.885 199.459 170.033 199.459 C 167.274 199.429 166.929 199.241 165.343 197.114 C 163.707 195.457 163.271 193.512 162.216 191.251 C 160.884 189.382 160.112 187.333 159.87 184.996 C 158.888 183.238 158.637 183.433 156.353 183.433 C 154.188 183.484 150.769 184.28 149.317 183.433 C 148.488 180.768 149.08 179.283 150.88 177.179 C 152.389 175.67 153.679 173.493 155.571 173.27 C 156.098 172.743 158.447 172.66 159.48 172.488 z "
     id="path677"
     transform="matrix(0.853424,-0.265621,0.160308,0.729680,-43.19069,182.1156)" />
  <path
     style="font-size:12;fill:url(#linearGradient1337);fill-rule:evenodd;stroke:#37982a;"
     d="M 147.753 150.208 C 147.883 150.208 148.014 150.208 148.144 150.208 C 147.089 150.208 147.626 150.234 149.708 149.817 C 152.64 149.157 154.77 148.198 157.134 147.081 C 157.945 145.691 158.672 147.702 159.48 149.035 C 161.784 150.748 163.737 151.964 166.515 152.162 C 167.663 150.212 168.81 147.995 170.033 146.299 C 173.645 144.421 175.878 146.582 180.587 148.644 C 184.252 152.37 188.911 155.575 189.577 160.762 C 189.534 163.044 189.397 163.366 187.232 164.28 C 184.832 165.848 184.476 166.349 186.06 168.579 C 186.779 170.23 187.315 171.988 187.623 174.052 C 188.809 177.292 186.896 177.865 184.105 179.133 C 182.67 179.851 179.535 179.524 177.46 179.524 C 174.543 178.328 173.451 176.139 171.206 173.27 C 170.671 171.664 170.415 169.315 169.643 168.189 C 168.268 169.852 166.777 171.966 165.734 174.052 C 165.271 175.748 164.71 176.921 162.607 177.57 C 160.298 177.384 158.514 176.738 156.743 176.006 C 154.227 174.163 153.12 172.749 151.662 170.534 C 150.414 168.588 150.357 168.579 147.753 168.579 C 145.445 168.725 143.617 169.298 141.499 169.752 C 140.822 168.737 143.397 168.083 144.626 167.798 C 146.894 166.619 148.675 165.653 150.489 164.28 C 151.985 163.34 153.302 163.07 154.398 162.325 C 152.458 160.989 150.617 159.992 148.535 159.198 C 147.25 158.281 146.999 157.2 146.971 154.899 C 147.032 153.085 147.535 152.079 147.753 150.208 z "
     id="path678"
     transform="matrix(0.853424,-0.265621,0.160308,0.729680,-43.19069,182.1156)" />
  <path
     style="font-size:12;fill:url(#linearGradient1336);fill-rule:evenodd;stroke:#37982a;"
     d="M 162.998 131.055 C 166.906 131.055 170.815 131.055 174.724 131.055 C 175.852 129.385 177.062 128.008 178.242 126.364 C 180.286 124.391 180.89 123.936 183.714 123.628 C 186.938 122.876 187.43 124.608 189.968 127.146 C 190.482 128.687 190.247 130.684 190.75 132.227 C 191.898 134.625 192.455 135.412 194.659 137.309 C 196.223 138.017 195.788 138.829 198.177 138.872 C 200.658 139.572 201.059 141.018 201.695 143.563 C 202.009 145.71 202.422 146.395 200.913 147.863 C 199.317 148.648 196.701 148.754 195.441 149.426 C 195.441 153.096 197.142 154.183 199.74 156.853 C 201.74 158.252 202.14 160.087 202.867 162.716 C 200.352 164.417 199.114 165.112 196.222 165.452 C 193.631 166.378 192.255 163.83 190.359 161.934 C 189.175 159.629 188.51 157.654 186.841 155.68 C 185.575 154.977 183.74 153.228 182.542 152.162 C 181.355 154.053 179.447 157.341 177.069 158.416 C 174.13 158.39 172.852 157.806 170.424 156.462 C 168.438 154.954 167.421 153.982 167.297 151.381 C 168.338 148.913 170.33 146.973 171.206 144.345 C 171.206 142.213 171.449 142.044 169.252 141.999 C 166.306 142.148 164.959 143.14 162.607 144.345 C 161.048 145.167 159.909 145.635 158.307 145.127 C 158.12 143.167 157.619 141.617 157.525 139.654 C 159.33 137.473 160.05 135.611 162.216 134.573 C 163.839 133.613 163.662 133.598 162.998 131.055 z "
     id="path679"
     transform="matrix(0.853424,-0.265621,0.160308,0.729680,-43.19069,182.1156)" />
  <path
     style="font-size:12;fill:url(#linearGradient1335);fill-rule:evenodd;stroke:#37982a;"
     d="M 153.616 111.511 C 153.747 111.38 153.877 111.25 154.007 111.12 C 153.026 112.101 153.502 111.653 155.18 109.556 C 157.382 107.824 160.207 106.096 162.607 105.648 C 165.553 106.852 167.508 108.521 169.643 110.338 C 171.155 111.317 172.24 111.818 174.333 111.12 C 175.915 109.836 177.815 108.607 179.805 107.602 C 181.809 107.179 183.181 106.896 184.887 107.993 C 187.102 110.166 188.816 112.086 189.577 115.029 C 189.898 116.74 190.783 117.769 191.532 119.328 C 191.496 121.309 190.825 122.176 191.923 123.628 C 193.474 125.18 195.248 126.708 195.832 128.319 C 192.885 131.106 192.23 131.643 188.405 132.618 C 186.18 133.284 183.976 133.471 182.542 134.573 C 183.353 136.602 184.076 138.012 184.105 140.436 C 182.576 142.319 181.407 142.995 178.633 143.172 C 176.238 142.565 174.286 141.659 172.379 140.045 C 171.031 136.69 168.686 132.984 167.688 129.491 C 167.433 128.761 166.681 125.562 166.125 125.192 C 163.444 125.854 161.935 127.722 159.87 129.491 C 158.085 130.936 156.756 131.935 154.789 132.227 C 152.647 128.569 150.757 123.298 149.317 118.547 C 149.646 116.311 150.411 115.358 151.662 113.465 C 151.662 112.24 151.56 113.156 153.616 111.511 z "
     id="path680"
     transform="matrix(0.853424,-0.265621,0.160308,0.729680,-43.19069,182.1156)" />
  <path
     style="font-size:12;fill:url(#linearGradient1334);fill-rule:evenodd;stroke:#37982a;"
     d="M 172.379 88.8396 C 172.509 88.8396 172.639 88.8396 172.77 88.8396 C 171.841 88.8396 172.254 88.8083 173.942 89.2305 C 176.471 89.953 177.651 90.2791 179.415 91.5758 C 181.059 92.2696 183.29 92.3575 185.669 92.3575 C 187.762 91.3752 189.834 90.8723 192.314 90.794 C 193.348 92.1869 194.606 94.2641 195.05 95.8754 C 195.078 98.2665 195.558 99.4871 197.004 100.957 C 198.751 102.725 199.782 104.008 200.522 105.648 C 201.33 107.726 202.014 109.541 202.086 111.902 C 202.043 114.917 201.547 114.621 198.959 115.42 C 197.676 115.42 196.152 115.277 195.441 115.81 C 195.91 117.353 196.795 118.294 197.004 120.11 C 196.958 122.412 196.385 122.734 194.268 123.628 C 192.327 125.021 190.465 125.468 188.014 125.582 C 186.304 123.072 184.783 121.152 184.105 118.156 C 184.105 115.761 184.243 112.602 184.105 110.729 C 181.545 110.396 180.729 110.13 179.415 112.683 C 178.762 114.457 178.323 116.089 177.46 116.983 C 174.309 115.563 171.768 113.245 169.252 110.729 C 167.7 109.058 167.125 108.43 167.688 106.82 C 169.351 105.399 171.392 104.356 172.379 102.911 C 172.896 102.107 173.935 101.732 173.16 100.957 C 169.755 100.957 166.731 101.315 163.779 99.7843 C 161.423 98.7227 160.481 98.6866 160.261 96.2664 C 161.374 93.8314 164.15 92.6197 166.125 91.5758 C 167.245 90.3438 168.751 90.0244 170.424 89.2305 L 166.125 91.5758 C 167.245 90.3438 168.751 90.0244 172.379 88.8396 z "
     id="path681"
     transform="matrix(0.853424,-0.265621,0.160308,0.729680,-43.19069,182.1156)" />
  <path
     style="font-size:12;fill:url(#linearGradient1333);fill-rule:evenodd;stroke:#37982a;"
     d="M 174.724 68.1229 C 174.854 68.1229 174.985 68.1229 175.115 68.1229 C 174.061 68.1229 174.591 68.1495 176.678 67.7321 C 179.62 67.7554 181.906 67.9471 184.496 68.9047 C 191.961 73.8546 190.648 72.2271 194.659 77.5041 C 196.012 78.277 196.822 79.8045 197.786 80.6311 C 200.235 80.6311 201.421 80.6474 203.258 79.0676 C 204.121 76.6656 204.715 73.7017 205.994 72.4226 C 207.011 70.8775 207.859 70.8849 209.903 71.25 C 212.309 73.8727 213.77 76.4636 215.767 79.4584 C 215.303 80.7551 214.041 80.7788 213.421 82.1946 C 212.47 83.1957 211.718 85.2543 211.076 86.8852 C 208.355 88.1846 206.626 88.8396 203.649 88.8396 C 203.781 91.6127 205.158 92.4526 207.167 94.312 C 208.566 96.066 208.708 97.5901 208.731 100.175 C 206.75 101.556 204.416 102.767 201.695 103.302 C 198.8 104.026 197.342 101.486 195.832 99.0025 C 194.886 97.5056 193.948 95.9626 193.486 94.312 C 191.618 93.2575 190.076 91.786 188.405 90.794 C 186.091 91.8424 185.063 93.8881 183.714 95.8754 C 181.165 98.1447 179.266 98.5288 175.897 98.6116 C 173.127 98.462 172.446 97.4694 170.815 95.4846 C 170.331 93.7891 170.245 92.7615 171.206 91.1849 C 172.312 88.5694 174.305 86.4535 174.724 83.7581 C 174.517 82.0999 173.534 82.2661 172.379 81.8038 C 170.5 81.8038 168.557 81.9046 166.906 81.4129 C 165.661 79.0352 165.734 77.2209 165.734 74.377 C 166.942 71.8074 167.353 70.5002 170.033 69.6864 C 171.574 68.476 172.061 68.5433 174.724 68.1229 z "
     id="path682"
     transform="matrix(0.853424,-0.265621,0.160308,0.729680,-43.10959,175.9958)" />
  <path
     style="font-size:12;fill:url(#linearGradient1332);fill-rule:evenodd;stroke:#37982a;"
     d="M 205.213 120.892 C 205.783 120.987 208.498 121.46 209.903 122.455 C 211.553 123.566 211.901 124.023 212.639 125.973 C 213.978 126.782 215.5 127.47 217.721 126.755 C 219.289 125.743 219.798 124.97 220.848 123.628 C 221.549 123.394 221.146 123.51 221.63 124.801 C 223.916 128.23 222.441 126.582 226.32 129.491 C 228.654 131.825 231.209 134.171 233.356 136.527 C 233.492 138.694 234.85 140.593 235.311 142.781 C 233.454 143.002 226.801 142.846 225.148 144.736 C 225.899 146.989 227.776 148.548 229.838 150.208 C 230.266 152.178 229.778 152.761 229.056 154.899 C 227.533 156.699 225.463 158.009 223.584 159.589 C 220.242 160.582 215.216 163.054 211.858 161.934 C 211.081 158.459 209.802 154.669 209.122 150.99 C 209.122 153.573 208.984 154.503 207.167 156.071 C 204.399 156.664 202.465 157.642 199.74 158.807 C 197.415 158.972 195.49 159.308 193.095 158.807 C 191.837 157.63 191.652 156.686 191.141 154.899 C 190.252 151.971 189.968 149.463 189.968 146.299 C 191.68 145.321 194.234 144.777 197.004 144.345 C 198.894 143.885 199.797 143.747 200.131 141.999 C 199.462 138.753 197.576 136.651 194.659 135.355 C 192.38 134.421 190.886 134.713 188.405 134.964 C 188.405 131.814 188.717 129.183 189.187 126.364 C 191.042 124.333 191.792 123.26 194.659 122.846 C 196.703 122.671 198.591 122.064 199.74 121.283 C 201.255 120.97 203.106 120.892 205.213 120.892 z "
     id="path683"
     transform="matrix(0.853424,-0.265621,0.160308,0.729680,-43.19069,182.1156)" />
  <path
     style="font-size:12;fill:url(#linearGradient1331);fill-rule:evenodd;stroke:#37982a;"
     d="M 205.604 173.27 C 205.734 173.4 205.864 173.531 205.994 173.661 C 205.014 172.68 205.46 173.155 207.558 174.833 C 208.279 176.43 209.147 176.006 211.076 176.006 C 213.364 175.391 214.883 173.929 216.548 172.879 C 217.85 172.879 218.603 172.498 218.894 173.661 C 220.513 175.28 220.457 176.88 220.457 179.524 C 219.624 180.941 217.831 181.589 216.939 182.651 C 217.026 185.26 217.955 187.049 218.894 189.296 C 220.396 190.843 221.124 194.272 221.63 196.723 C 219.828 199.125 217.38 201.4 214.985 203.368 C 213.494 204.969 211.162 205.41 209.512 206.104 C 209.031 207.749 210.13 209.004 211.467 210.795 C 211.735 212.839 212.539 214.224 211.858 216.267 C 210.512 217.074 207.86 216.479 205.994 216.267 C 203.96 215.187 203.821 215.263 202.867 213.14 C 199.53 210.366 195.769 208.082 194.659 203.759 C 193.792 201.948 192.382 199.594 193.095 198.286 C 195.306 196.806 197.811 195.461 200.131 194.378 C 202.085 192.689 202.554 191.612 202.867 188.905 C 201.26 188.302 200.781 187.783 198.568 188.905 C 195.889 190.031 194.31 191.554 193.486 194.378 C 192.348 195.725 191.557 196.292 189.577 195.55 C 187.183 193.202 184.833 191.363 183.714 188.514 C 182.553 186.845 183.165 185.779 183.323 183.824 C 184.357 181.116 186.093 178.599 188.796 177.57 C 191.271 177.57 193.747 177.57 196.222 177.57 C 197.774 177.225 196.49 176.278 195.832 175.224 C 195.711 172.978 195.191 172.312 196.613 170.534 C 197.594 168.964 198.473 167.845 200.131 167.407 C 200.628 168.152 201.169 167.362 201.304 168.579 C 202.806 170.082 203.904 171.378 205.604 173.27 z "
     id="path684"
     transform="matrix(0.853424,-0.265621,0.160308,0.729680,-43.19069,182.1156)" />
</svg>
