<?xml version="1.0" encoding="UTF-8" standalone="no"?>
<!DOCTYPE svg PUBLIC "-//W3C//DTD SVG 20010904//EN"
"http://www.w3.org/TR/2001/REC-SVG-20010904/DTD/svg10.dtd"
[
 <!ATTLIST svg
  xmlns:xlink CDATA #FIXED "http://www.w3.org/1999/xlink">
]>
<!-- Created with Sodipodi ("http://www.sodipodi.com/") -->
<svg
   id="svg1985"
   sodipodi:version="0.32"
   xmlns="http://www.w3.org/2000/svg"
   xmlns:sodipodi="http://sodipodi.sourceforge.net/DTD/sodipodi-0.dtd"
   xmlns:xlink="http://www.w3.org/1999/xlink"
   width="400pt"
   height="400pt"
   sodipodi:docbase="/home/fulld/tmp/cartoonic/images"
   sodipodi:docname="/home/fulld/tmp/cartoonic/images/small-topic.svg">
  <defs
     id="defs1987" />
  <sodipodi:namedview
     id="base" />
  <path
     style="fill:#30dbd2;fill-rule:evenodd;stroke:black;stroke-opacity:1;stroke-width:1pt;stroke-linejoin:miter;stroke-linecap:butt;fill-opacity:1;"
     d="M 210.472 211.018 L 314.038 129.168 L 188.757 79.0551 L 210.472 211.018 z "
     id="path1995"
     transform="matrix(1.305700,0.000000,0.000000,1.358209,49.97403,187.1405)" />
  <path
     style="fill:#ffffff;fill-rule:evenodd;stroke:black;stroke-opacity:1;stroke-width:1pt;stroke-linejoin:miter;stroke-linecap:butt;fill-opacity:1;"
     d="M 170.382 84.0663 L 302.345 102.441 L 300.675 125.827 L 210.472 209.348 L 213.813 124.156 L 170.382 84.0663 z "
     id="path1994"
     transform="matrix(1.305700,0.000000,0.000000,1.358209,49.97403,187.1405)" />
  <path
     style="fill:#30dbd2;fill-rule:evenodd;stroke:black;stroke-opacity:1;stroke-width:1pt;stroke-linejoin:miter;stroke-linecap:butt;fill-opacity:1;"
     d="M 313.059 100.484 C 313.059 100.484 197.109 187.632 207.132 184.291 C 217.154 180.95 15.0337 87.4072 15.0337 87.4072 L 135.304 18.9201 C 135.304 18.9201 313.059 102.154 313.059 100.484 z "
     id="path1992"
     transform="matrix(1.305700,0.000000,0.000000,1.358209,49.97403,187.1405)"
     sodipodi:nodetypes="ccccc" />
  <path
     style="fill:#30dbd2;fill-rule:evenodd;stroke:black;stroke-opacity:1;stroke-width:1pt;stroke-linejoin:miter;stroke-linecap:butt;fill-opacity:1;"
     d="M 207.132 226.052 L 207.132 262.801 L 15.0337 165.917 L 13.3633 130.838 C 13.3633 130.838 205.461 231.063 207.132 226.052 z "
     id="path1993"
     transform="matrix(1.305700,0.000000,0.000000,1.341017,52.15508,125.8643)" />
  <path
     style="fill:#15635f;fill-rule:evenodd;stroke:black;stroke-opacity:1;stroke-width:1pt;stroke-linejoin:miter;stroke-linecap:butt;fill-opacity:0.711864;"
     d="M 68.4871 115.804 L 121.94 142.531 L 120.27 162.576 L 66.8167 134.179 L 68.4871 115.804 z "
     id="path1996"
     transform="matrix(1.305700,0.000000,0.000000,1.358209,122.4595,228.8514)" />
  <path
     style="fill:#db3030;fill-rule:evenodd;stroke:black;stroke-opacity:1;stroke-width:1pt;stroke-linejoin:miter;stroke-linecap:butt;fill-opacity:1;"
     d="M 210.472 211.018 L 327.031 127.987 L 188.757 79.0551 L 210.472 211.018 z "
     id="path1997"
     transform="matrix(1.305700,0.000000,0.000000,1.358209,28.16338,128.1524)"
     sodipodi:nodetypes="cccc" />
  <path
     style="fill:#ffffff;fill-rule:evenodd;stroke:black;stroke-opacity:1;stroke-width:1pt;stroke-linejoin:miter;stroke-linecap:butt;fill-opacity:1;"
     d="M 170.382 84.0663 L 302.345 102.441 L 300.675 125.827 L 210.472 209.348 L 213.813 124.156 L 170.382 84.0663 z "
     id="path1998"
     transform="matrix(1.305700,0.000000,0.000000,1.358209,28.16338,128.1524)" />
  <path
     style="fill:#db3030;fill-rule:evenodd;stroke:black;stroke-opacity:1;stroke-width:1pt;stroke-linejoin:miter;stroke-linecap:butt;fill-opacity:1;"
     d="M 310.697 95.7592 C 310.697 95.7592 197.109 187.632 207.132 184.291 C 217.154 180.95 15.0337 87.4072 15.0337 87.4072 L 135.304 18.9201 C 135.304 18.9201 310.697 97.4297 310.697 95.7592 z "
     id="path1999"
     transform="matrix(1.305700,0.000000,0.000000,1.358209,28.16338,128.1524)" />
  <path
     style="fill:#db3030;fill-rule:evenodd;stroke:black;stroke-opacity:1;stroke-width:1pt;stroke-linejoin:miter;stroke-linecap:butt;fill-opacity:1;"
     d="M 207.132 226.052 L 207.132 262.801 L 15.0337 165.917 L 13.3633 130.838 C 13.3633 130.838 205.461 231.063 207.132 226.052 z "
     id="path2000"
     transform="matrix(1.305700,0.000000,0.000000,1.341017,30.34441,66.87611)" />
  <path
     style="fill:#db7c7c;fill-rule:evenodd;stroke:black;stroke-opacity:1;stroke-width:1pt;stroke-linejoin:miter;stroke-linecap:butt;fill-opacity:1;"
     d="M 68.4871 115.804 L 121.94 142.531 L 120.27 162.576 L 66.8167 134.179 L 68.4871 115.804 z "
     id="path2001"
     transform="matrix(1.585481,0.000000,0.000000,1.632606,9.469360,96.37600)" />
  <path
     style="fill:#884a88;fill-rule:evenodd;stroke:black;stroke-opacity:1;stroke-width:1pt;stroke-linejoin:miter;stroke-linecap:butt;fill-opacity:1;"
     d="M 210.472 211.018 L 304.589 127.987 L 188.757 79.0551 L 210.472 211.018 z "
     id="path2002"
     transform="matrix(1.305700,0.000000,0.000000,1.358209,52.15507,98.65829)"
     sodipodi:nodetypes="cccc" />
  <path
     style="fill:#ffffff;fill-rule:evenodd;stroke:black;stroke-opacity:1;stroke-width:1pt;stroke-linejoin:miter;stroke-linecap:butt;fill-opacity:1;"
     d="M 170.382 84.0663 L 302.345 102.441 L 300.675 125.827 L 210.472 209.348 L 213.813 124.156 L 170.382 84.0663 z "
     id="path2003"
     transform="matrix(1.305700,0.000000,0.000000,1.358209,52.15507,98.65829)" />
  <path
     style="fill:#884a88;fill-rule:evenodd;stroke:black;stroke-opacity:1;stroke-width:1pt;stroke-linejoin:miter;stroke-linecap:butt;fill-opacity:1;"
     d="M 310.697 95.7592 C 310.697 95.7592 197.109 187.632 207.132 184.291 C 217.154 180.95 15.0337 87.4072 15.0337 87.4072 L 135.304 18.9201 C 135.304 18.9201 310.697 97.4297 310.697 95.7592 z "
     id="path2004"
     transform="matrix(1.305700,0.000000,0.000000,1.358209,52.15507,98.65829)" />
  <path
     style="fill:#884a88;fill-rule:evenodd;stroke:black;stroke-opacity:1;stroke-width:1pt;stroke-linejoin:miter;stroke-linecap:butt;fill-opacity:1;"
     d="M 207.132 226.052 L 207.132 262.801 L 15.0337 165.917 L 13.3633 130.838 C 13.3633 130.838 205.461 231.063 207.132 226.052 z "
     id="path2005"
     transform="matrix(1.305700,0.000000,0.000000,1.341017,54.33612,37.38220)" />
  <path
     style="fill:#1e8d38;fill-rule:evenodd;stroke:black;stroke-opacity:1;stroke-width:1pt;stroke-linejoin:miter;stroke-linecap:butt;fill-opacity:1;"
     d="M 210.472 211.018 L 308.132 129.168 L 188.757 79.0551 L 210.472 211.018 z "
     id="path2007"
     transform="matrix(1.305700,0.000000,0.000000,1.358209,23.80125,35.13260)"
     sodipodi:nodetypes="cccc" />
  <path
     style="fill:#ffffff;fill-rule:evenodd;stroke:black;stroke-opacity:1;stroke-width:1pt;stroke-linejoin:miter;stroke-linecap:butt;fill-opacity:1;"
     d="M 170.382 84.0663 L 302.345 102.441 L 300.675 125.827 L 210.472 209.348 L 213.813 124.156 L 170.382 84.0663 z "
     id="path2008"
     transform="matrix(1.305700,0.000000,0.000000,1.358209,23.80125,35.13260)" />
  <path
     style="fill:#1e8d38;fill-rule:evenodd;stroke:black;stroke-opacity:1;stroke-width:1pt;stroke-linejoin:miter;stroke-linecap:butt;fill-opacity:1;"
     d="M 310.697 95.7592 C 310.697 95.7592 197.109 187.632 207.132 184.291 C 217.154 180.95 15.0337 87.4072 15.0337 87.4072 L 135.304 18.9201 C 135.304 18.9201 310.697 97.4297 310.697 95.7592 z "
     id="path2009"
     transform="matrix(1.305700,0.000000,0.000000,1.358209,23.80125,35.13260)" />
  <path
     style="fill:#1e8d38;fill-rule:evenodd;stroke:black;stroke-opacity:1;stroke-width:1pt;stroke-linejoin:miter;stroke-linecap:butt;fill-opacity:1;"
     d="M 207.132 226.052 L 207.132 262.801 L 15.0337 165.917 L 13.3633 130.838 C 13.3633 130.838 205.461 231.063 207.132 226.052 z "
     id="path2010"
     transform="matrix(1.305700,0.000000,0.000000,1.341017,25.98232,-26.14353)" />
  <path
     style="fill:#145b54;fill-rule:evenodd;stroke:black;stroke-opacity:1;stroke-width:1pt;stroke-linejoin:miter;stroke-linecap:butt;fill-opacity:1;"
     d="M 210.472 211.018 L 314.038 129.168 L 188.757 79.0551 L 210.472 211.018 z "
     id="path2012"
     transform="matrix(1.305700,0.000000,0.000000,1.358209,54.33612,-3.436584)" />
  <path
     style="fill:#ffffff;fill-rule:evenodd;stroke:black;stroke-opacity:1;stroke-width:1pt;stroke-linejoin:miter;stroke-linecap:butt;fill-opacity:1;"
     d="M 170.382 84.0663 L 305.889 96.5352 L 305.4 125.827 L 210.472 209.348 L 213.813 124.156 L 170.382 84.0663 z "
     id="path2013"
     transform="matrix(1.305700,0.000000,0.000000,1.358209,54.33612,-3.436584)"
     sodipodi:nodetypes="cccccc" />
  <path
     style="fill:#145b54;fill-rule:evenodd;stroke:black;stroke-opacity:1;stroke-width:1pt;stroke-linejoin:miter;stroke-linecap:butt;fill-opacity:1;"
     d="M 310.697 95.7592 C 310.697 95.7592 197.109 187.632 207.132 184.291 C 217.154 180.95 15.0337 87.4072 15.0337 87.4072 L 135.304 18.9201 C 135.304 18.9201 310.697 97.4297 310.697 95.7592 z "
     id="path2014"
     transform="matrix(1.305700,0.000000,0.000000,1.358209,54.33612,-3.436584)" />
  <path
     style="fill:#11504c;fill-rule:evenodd;stroke:black;stroke-opacity:1;stroke-width:1pt;stroke-linejoin:miter;stroke-linecap:butt;fill-opacity:1;"
     d="M 207.132 226.052 L 207.132 262.801 L 15.0337 165.917 L 13.3633 130.838 C 13.3633 130.838 205.461 231.063 207.132 226.052 z "
     id="path2015"
     transform="matrix(1.305700,0.000000,0.000000,1.341017,56.51719,-64.71272)" />
  <path
     style="fill:#145b54;fill-rule:evenodd;stroke:black;stroke-opacity:1;stroke-width:1pt;stroke-linejoin:miter;stroke-linecap:butt;fill-opacity:1;"
     d="M 68.4871 115.804 L 121.94 142.531 L 120.27 162.576 L 66.8167 134.179 L 68.4871 115.804 z "
     id="path2016"
     transform="matrix(1.305700,0.000000,0.000000,1.358209,82.09651,14.21032)" />
</svg>
