<?xml version="1.0" encoding="UTF-8" standalone="no"?>
<!DOCTYPE svg PUBLIC "-//W3C//DTD SVG 20010904//EN"
"http://www.w3.org/TR/2001/REC-SVG-20010904/DTD/svg10.dtd"
[
 <!ATTLIST svg
  xmlns:xlink CDATA #FIXED "http://www.w3.org/1999/xlink">
]>
<!-- Created with Sodipodi ("http://www.sodipodi.com/") -->
<svg
   id="svg1985"
   sodipodi:version="0.32"
   xmlns="http://www.w3.org/2000/svg"
   xmlns:sodipodi="http://sodipodi.sourceforge.net/DTD/sodipodi-0.dtd"
   xmlns:xlink="http://www.w3.org/1999/xlink"
   width="400pt"
   height="400pt"
   sodipodi:docbase="/home/fulld/tmp/cartoonic/images"
   sodipodi:docname="/home/fulld/tmp/cartoonic/images/stats.svg">
  <defs
     id="defs1987">
    <linearGradient
       id="linearGradient2019">
      <stop
         style="stop-color:#ffffff;stop-opacity:1;"
         offset="0.000000"
         id="stop2020" />
      <stop
         style="stop-color:#b5b2c7;stop-opacity:1;"
         offset="1.000000"
         id="stop2021" />
    </linearGradient>
    <radialGradient
       xlink:href="#linearGradient2019"
       id="radialGradient2022"
       cx="0.51612902"
       cy="0.49218750"
       fx="0.51612902"
       fy="0.49218750"
       r="2.10700274"
       gradientUnits="objectBoundingBox"
       spreadMethod="pad" />
  </defs>
  <sodipodi:namedview
     id="base" />
  <path
     style="fill:url(#radialGradient2022);fill-rule:evenodd;stroke:black;stroke-opacity:1;stroke-width:1pt;stroke-linejoin:miter;stroke-linecap:butt;fill-opacity:1;"
     d="M 101.895 453.228 C 100.225 453.228 126.952 17.2494 126.952 17.2494 L 415.934 20.5902 L 412.593 453.228 L 101.895 453.228 z "
     id="path2018"
     transform="translate(10.02251,10.02251)" />
  <path
     style="fill:#ffffff;fill-rule:evenodd;stroke:black;stroke-opacity:1;stroke-width:1pt;stroke-linejoin:miter;stroke-linecap:butt;fill-opacity:0.491525;"
     d="M 25.0563 419.82 C 26.7267 419.82 442.661 261.13 444.331 262.801 C 446.001 264.471 462.706 314.584 462.706 314.584 L 43.4309 468.262 L 25.0563 419.82 z "
     id="path2023"
     sodipodi:nodetypes="ccccc"
     transform="translate(10.02251,11.69292)" />
  <path
     style="fill:none;fill-rule:evenodd;stroke:#bababa;stroke-opacity:1;stroke-width:1pt;stroke-linejoin:miter;stroke-linecap:butt;fill-opacity:0.576271;"
     d="M 140.315 32.2831 L 118.6 438.195 C 118.6 438.195 123.611 434.854 121.94 434.854 C 120.27 434.854 141.985 48.9872 141.985 48.9872 L 140.315 32.2831 z "
     id="path2046"
     transform="translate(10.02251,10.02251)" />
  <path
     style="fill:none;fill-rule:evenodd;stroke:#bababa;stroke-opacity:1;stroke-width:1pt;stroke-linejoin:miter;stroke-linecap:butt;fill-opacity:0.711864;"
     d="M 400.9 441.535 L 108.577 438.195 L 108.577 434.854 L 392.548 438.195 L 400.9 441.535 z "
     id="path2047"
     transform="translate(10.02251,10.02251)" />
  <path
     style="fill:#30dbd2;fill-rule:evenodd;stroke:black;stroke-opacity:1;stroke-width:1pt;stroke-linejoin:miter;stroke-linecap:butt;fill-opacity:0.711864;"
     d="M 170.383 434.854 C 168.712 434.854 172.053 311.243 172.053 311.243 L 222.166 312.913 L 220.495 434.854 L 170.383 434.854 z "
     id="path2048"
     transform="translate(10.02251,10.02251)" />
  <path
     style="fill:#30dbd2;fill-rule:evenodd;stroke:black;stroke-opacity:1;stroke-width:1pt;stroke-linejoin:miter;stroke-linecap:butt;fill-opacity:0.711864;"
     d="M 248.892 434.854 C 250.563 434.854 255.574 204.336 255.574 204.336 L 315.709 206.007 L 305.686 433.183 L 248.892 434.854 z "
     id="path2049"
     transform="translate(98.55463,11.69292)" />
  <path
     style="fill:#30dbd2;fill-rule:evenodd;stroke:black;stroke-opacity:1;stroke-width:1pt;stroke-linejoin:miter;stroke-linecap:butt;fill-opacity:0.711864;"
     d="M 332.413 434.854 L 342.436 85.7364 L 399.23 87.4068 L 389.207 438.195 L 332.413 434.854 z "
     id="path2050"
     transform="translate(-63.47588,13.36334)" />
  <path
     style="fill:#000000;fill-rule:evenodd;stroke:black;stroke-opacity:1;stroke-width:1pt;stroke-linejoin:miter;stroke-linecap:butt;fill-opacity:0.567797;"
     d="M 33.4083 419.82 L 46.7717 433.183 L 43.4309 416.479 L 33.4083 419.82 z "
     id="path2024"
     transform="translate(388.5708,-131.5652)" />
  <path
     style="fill:#000000;fill-rule:evenodd;stroke:black;stroke-opacity:1;stroke-width:1pt;stroke-linejoin:miter;stroke-linecap:butt;fill-opacity:0.567797;"
     d="M 33.4083 419.82 L 46.7717 433.183 L 43.4309 416.479 L 33.4083 419.82 z "
     id="path2025"
     transform="translate(369.5599,-124.4858)" />
  <path
     style="fill:#000000;fill-rule:evenodd;stroke:black;stroke-opacity:1;stroke-width:1pt;stroke-linejoin:miter;stroke-linecap:butt;fill-opacity:0.567797;"
     d="M 33.4083 419.82 L 46.7717 433.183 L 43.4309 416.479 L 33.4083 419.82 z "
     id="path2026"
     transform="translate(350.5490,-117.4064)" />
  <path
     style="fill:#000000;fill-rule:evenodd;stroke:black;stroke-opacity:1;stroke-width:1pt;stroke-linejoin:miter;stroke-linecap:butt;fill-opacity:0.567797;"
     d="M 33.4083 419.82 L 46.7717 433.183 L 43.4309 416.479 L 33.4083 419.82 z "
     id="path2027"
     transform="translate(331.5380,-110.3270)" />
  <path
     style="fill:#000000;fill-rule:evenodd;stroke:black;stroke-opacity:1;stroke-width:1pt;stroke-linejoin:miter;stroke-linecap:butt;fill-opacity:0.567797;"
     d="M 33.4083 419.82 L 46.7717 433.183 L 43.4309 416.479 L 33.4083 419.82 z "
     id="path2028"
     transform="translate(312.5271,-103.2476)" />
  <path
     style="fill:#000000;fill-rule:evenodd;stroke:black;stroke-opacity:1;stroke-width:1pt;stroke-linejoin:miter;stroke-linecap:butt;fill-opacity:0.567797;"
     d="M 33.4083 419.82 L 46.7717 433.183 L 43.4309 416.479 L 33.4083 419.82 z "
     id="path2029"
     transform="translate(293.5162,-96.16829)" />
  <path
     style="fill:#000000;fill-rule:evenodd;stroke:black;stroke-opacity:1;stroke-width:1pt;stroke-linejoin:miter;stroke-linecap:butt;fill-opacity:0.567797;"
     d="M 33.4083 419.82 L 46.7717 433.183 L 43.4309 416.479 L 33.4083 419.82 z "
     id="path2030"
     transform="translate(274.5052,-89.08886)" />
  <path
     style="fill:#000000;fill-rule:evenodd;stroke:black;stroke-opacity:1;stroke-width:1pt;stroke-linejoin:miter;stroke-linecap:butt;fill-opacity:0.567797;"
     d="M 33.4083 419.82 L 46.7717 433.183 L 43.4309 416.479 L 33.4083 419.82 z "
     id="path2031"
     transform="translate(255.4943,-82.00947)" />
  <path
     style="fill:#000000;fill-rule:evenodd;stroke:black;stroke-opacity:1;stroke-width:1pt;stroke-linejoin:miter;stroke-linecap:butt;fill-opacity:0.567797;"
     d="M 33.4083 419.82 L 46.7717 433.183 L 43.4309 416.479 L 33.4083 419.82 z "
     id="path2032"
     transform="translate(236.4833,-74.93011)" />
  <path
     style="fill:#000000;fill-rule:evenodd;stroke:black;stroke-opacity:1;stroke-width:1pt;stroke-linejoin:miter;stroke-linecap:butt;fill-opacity:0.567797;"
     d="M 33.4083 419.82 L 46.7717 433.183 L 43.4309 416.479 L 33.4083 419.82 z "
     id="path2033"
     transform="translate(217.4724,-67.85072)" />
  <path
     style="fill:#000000;fill-rule:evenodd;stroke:black;stroke-opacity:1;stroke-width:1pt;stroke-linejoin:miter;stroke-linecap:butt;fill-opacity:0.567797;"
     d="M 33.4083 419.82 L 46.7717 433.183 L 43.4309 416.479 L 33.4083 419.82 z "
     id="path2034"
     transform="translate(198.4615,-60.77133)" />
  <path
     style="fill:#000000;fill-rule:evenodd;stroke:black;stroke-opacity:1;stroke-width:1pt;stroke-linejoin:miter;stroke-linecap:butt;fill-opacity:0.567797;"
     d="M 33.4083 419.82 L 46.7717 433.183 L 43.4309 416.479 L 33.4083 419.82 z "
     id="path2035"
     transform="translate(179.4505,-53.69194)" />
  <path
     style="fill:#000000;fill-rule:evenodd;stroke:black;stroke-opacity:1;stroke-width:1pt;stroke-linejoin:miter;stroke-linecap:butt;fill-opacity:0.567797;"
     d="M 33.4083 419.82 L 46.7717 433.183 L 43.4309 416.479 L 33.4083 419.82 z "
     id="path2036"
     transform="translate(160.4396,-46.61255)" />
  <path
     style="fill:#000000;fill-rule:evenodd;stroke:black;stroke-opacity:1;stroke-width:1pt;stroke-linejoin:miter;stroke-linecap:butt;fill-opacity:0.567797;"
     d="M 33.4083 419.82 L 46.7717 433.183 L 43.4309 416.479 L 33.4083 419.82 z "
     id="path2037"
     transform="translate(141.4287,-39.53320)" />
  <path
     style="fill:#000000;fill-rule:evenodd;stroke:black;stroke-opacity:1;stroke-width:1pt;stroke-linejoin:miter;stroke-linecap:butt;fill-opacity:0.567797;"
     d="M 33.4083 419.82 L 46.7717 433.183 L 43.4309 416.479 L 33.4083 419.82 z "
     id="path2038"
     transform="translate(122.4177,-32.45380)" />
  <path
     style="fill:#000000;fill-rule:evenodd;stroke:black;stroke-opacity:1;stroke-width:1pt;stroke-linejoin:miter;stroke-linecap:butt;fill-opacity:0.567797;"
     d="M 33.4083 419.82 L 46.7717 433.183 L 43.4309 416.479 L 33.4083 419.82 z "
     id="path2039"
     transform="translate(103.4068,-25.37441)" />
  <path
     style="fill:#000000;fill-rule:evenodd;stroke:black;stroke-opacity:1;stroke-width:1pt;stroke-linejoin:miter;stroke-linecap:butt;fill-opacity:0.567797;"
     d="M 33.4083 419.82 L 46.7717 433.183 L 43.4309 416.479 L 33.4083 419.82 z "
     id="path2040"
     transform="translate(84.39584,-18.29502)" />
  <path
     style="fill:#000000;fill-rule:evenodd;stroke:black;stroke-opacity:1;stroke-width:1pt;stroke-linejoin:miter;stroke-linecap:butt;fill-opacity:0.567797;"
     d="M 33.4083 419.82 L 46.7717 433.183 L 43.4309 416.479 L 33.4083 419.82 z "
     id="path2041"
     transform="translate(65.38491,-11.21563)" />
  <path
     style="fill:#000000;fill-rule:evenodd;stroke:black;stroke-opacity:1;stroke-width:1pt;stroke-linejoin:miter;stroke-linecap:butt;fill-opacity:0.567797;"
     d="M 33.4083 419.82 L 46.7717 433.183 L 43.4309 416.479 L 33.4083 419.82 z "
     id="path2042"
     transform="translate(46.37397,-4.136276)" />
  <path
     style="fill:#000000;fill-rule:evenodd;stroke:black;stroke-opacity:1;stroke-width:1pt;stroke-linejoin:miter;stroke-linecap:butt;fill-opacity:0.567797;"
     d="M 33.4083 419.82 L 46.7717 433.183 L 43.4309 416.479 L 33.4083 419.82 z "
     id="path2043"
     transform="translate(27.36303,2.943115)" />
  <path
     style="fill:#000000;fill-rule:evenodd;stroke:black;stroke-opacity:1;stroke-width:1pt;stroke-linejoin:miter;stroke-linecap:butt;fill-opacity:0.567797;"
     d="M 33.4083 419.82 L 46.7717 433.183 L 43.4309 416.479 L 33.4083 419.82 z "
     id="path2044"
     transform="translate(8.352089,10.02251)" />
  <path
     style="fill:#000000;fill-rule:evenodd;stroke:black;stroke-opacity:1;stroke-width:1pt;stroke-linejoin:miter;stroke-linecap:butt;fill-opacity:0.567797;"
     d="M 33.4083 419.82 L 46.7717 433.183 L 43.4309 416.479 L 33.4083 419.82 z "
     id="path2045"
     transform="translate(407.5818,-138.6446)" />
  <path
     style="fill:#d67c1d;fill-rule:evenodd;stroke:black;stroke-opacity:1;stroke-width:1pt;stroke-linejoin:miter;stroke-linecap:butt;fill-opacity:0.711864;"
     d="M 28.3971 135.849 L 233.858 406.457 L 255.574 421.49 L 247.222 398.104 L 41.7604 125.826 L 28.3971 135.849 z "
     id="path2051"
     sodipodi:nodetypes="cccccc"
     transform="translate(10.02251,10.02251)" />
</svg>
