<?xml version="1.0" encoding="UTF-8" standalone="no"?>
<!DOCTYPE svg PUBLIC "-//W3C//DTD SVG 20010904//EN"
"http://www.w3.org/TR/2001/REC-SVG-20010904/DTD/svg10.dtd">
<!-- Created with Sodipodi ("http://www.sodipodi.com/") -->
<svg
   id="svg548"
   sodipodi:version="0.32"
   width="400pt"
   height="400pt"
   sodipodi:docbase="/home/fulld/tmp/cartoonic/images"
   sodipodi:docname="/home/fulld/tmp/cartoonic/images/background.svg"
   xmlns="http://www.w3.org/2000/svg"
   xmlns:sodipodi="http://sodipodi.sourceforge.net/DTD/sodipodi-0.dtd"
   xmlns:xlink="http://www.w3.org/1999/xlink">
  <defs
     id="defs550">
    <linearGradient
       id="linearGradient573">
      <stop
         style="stop-color:#ff0000;stop-opacity:1;"
         offset="0.000000"
         id="stop574" />
      <stop
         style="stop-color:#870000;stop-opacity:1;"
         offset="1.000000"
         id="stop575" />
    </linearGradient>
    <linearGradient
       id="linearGradient563">
      <stop
         style="stop-color:#000;stop-opacity:1;"
         offset="0"
         id="stop564" />
      <stop
         style="stop-color:#fff;stop-opacity:1;"
         offset="1"
         id="stop565" />
    </linearGradient>
    <linearGradient
       xlink:href="#linearGradient573"
       id="linearGradient566"
       x1="0.69696993"
       y1="0.65625024"
       x2="0.57575774"
       y2="0.50000018"
       gradientUnits="objectBoundingBox"
       spreadMethod="reflect" />
    <radialGradient
       xlink:href="#linearGradient573"
       id="radialGradient567"
       cx="0.49767339"
       cy="0.48394784"
       fx="0.49767339"
       fy="0.48394784"
       r="0.67371601"
       gradientUnits="objectBoundingBox"
       spreadMethod="pad" />
    <linearGradient
       xlink:href="#linearGradient563"
       id="linearGradient569"
       x1="-0.72131294"
       y1="0.10937556"
       x2="1.26229525"
       y2="1.12500000"
       gradientUnits="objectBoundingBox"
       spreadMethod="pad" />
    <radialGradient
       xlink:href="#linearGradient573"
       id="radialGradient579"
       cx="0.46464661"
       cy="0.32812479"
       fx="0.46464661"
       fy="0.32812479"
       r="0.61277765"
       gradientUnits="objectBoundingBox"
       spreadMethod="reflect" />
  </defs>
  <sodipodi:namedview
     id="base" />
  <rect
     style="font-size:12;fill:#000000;fill-rule:evenodd;stroke-width:1pt;stroke:none;stroke-opacity:1;fill-opacity:1;"
     id="rect583"
     width="483.750911"
     height="484.873265"
     x="6.734360"
     y="7.269986" />
  <path
     style="fill:#62afd0;fill-rule:evenodd;stroke:none;stroke-opacity:1;stroke-width:1pt;stroke-linejoin:miter;stroke-linecap:butt;fill-opacity:0.5;"
     d="M 72.9555 58.9 C 73.3296 58.9 73.7037 58.9 74.0779 58.9 C 70.9405 58.9 72.6095 59.0384 78.5674 56.6552 C 86.6954 55.7843 94.8121 55.5328 103.26 55.5328 C 109.467 55.5328 113.805 55.5626 118.974 57.7776 C 123.438 64.1552 128.949 67.054 135.809 71.2463 C 146.434 78.5613 156.785 86.1459 167.236 93.6941 C 172.315 97.5373 174.064 101.901 179.583 102.673 C 191.738 102.461 203.053 101.551 215.499 101.551 C 224.01 107.116 231.347 109.483 232.335 119.509 C 231.907 128.181 229.204 132.666 223.356 138.59 C 211.265 142.316 200.938 145.725 188.562 143.079 C 173.009 139.107 155.973 135.586 142.544 127.366 C 135.762 119.56 129.049 114.771 126.83 104.918 C 121.92 101.235 120.806 105.949 117.851 110.53 C 112.593 117.879 110.447 126.075 105.505 132.978 C 95.4197 134.64 88.4803 133.581 78.5674 130.733 C 74.6569 125.102 66.0407 118.226 61.7316 111.652 C 57.9316 106.504 55.3152 102.616 54.9972 95.9389 C 61.6795 91.0647 67.7298 90.6801 76.3227 90.327 C 80.7994 87.7351 79.6789 88.3454 75.2003 85.8374 C 68.7856 84.0191 62.0048 82.7757 56.1196 80.2254 C 49.7346 78.8065 46.1308 75.8686 41.5285 74.6135 C 36.7372 70.4295 35.0455 68.182 34.7941 61.1448 C 37.0925 54.3565 38.6782 48.121 41.5285 42.0641 C 47.2177 38.1151 52.2842 37.3949 58.3644 40.9417 C 62.7949 43.0634 66.0959 46.3319 68.4659 49.9208 C 71.5924 51.2608 71.6729 54.0547 72.9555 58.9 z "
     id="path585"
     transform="translate(-62.85395,-15.71350)" />
  <path
     style="fill:#62afd0;fill-rule:evenodd;stroke:none;stroke-opacity:1;stroke-width:1pt;stroke-linejoin:miter;stroke-linecap:butt;fill-opacity:0.5;"
     d="M 87.5466 168.894 C 87.9207 168.894 88.2948 168.894 88.669 168.894 C 85.5318 168.894 87.1992 169.033 93.1585 166.65 C 99.8241 162.608 103.386 161.23 106.627 155.426 C 110.16 152.172 112.535 149.07 117.851 146.447 C 123.004 142.152 126.098 140.965 132.442 143.079 C 138.94 149.65 144.271 156.628 150.401 163.282 C 153.92 164.602 154.934 164.872 158.257 161.038 C 174.817 144.702 192.093 129.647 209.887 115.02 C 219.151 108.638 228.582 118.843 236.825 125.121 C 248.233 131.206 257.33 138.771 268.252 145.324 C 276.861 151.781 284.239 159.196 292.944 165.527 C 299.988 174.555 308.335 183.033 313.147 192.465 C 314.406 196.242 314.27 199.598 314.27 203.689 C 307.176 211.184 300.522 216.73 291.822 222.769 C 271.26 224.311 250.953 225.014 230.09 225.014 C 228.562 229.855 231.581 234.328 232.335 239.605 C 230.249 243.361 224.47 241.85 219.989 241.85 C 205.525 240.255 192.081 235.381 177.338 235.116 C 169.617 240.444 164.455 239.982 154.89 238.483 C 145.612 235.728 140.616 233.792 132.442 237.36 C 120.735 240.601 114.96 238.766 103.26 233.993 C 96.6844 228.029 94.591 225.131 94.2809 216.035 C 105.812 210.958 111.411 209.794 123.463 212.668 C 131.303 212.668 120.403 210.723 116.729 209.3 C 107.365 202.412 96.0586 195.665 90.9137 185.73 C 83.99 184.988 77.359 184.529 71.8331 185.73 C 71.1377 184.687 74.8554 183.233 77.445 181.241 C 82.4885 179.486 86.5386 178.311 88.669 174.506 C 91.8061 174.506 89.9304 174.854 87.5466 168.894 z "
     id="path586"
     transform="translate(0.000000,-14.59110)" />
  <path
     style="fill:#62afd0;fill-rule:evenodd;stroke:none;stroke-opacity:1;stroke-width:1pt;stroke-linejoin:miter;stroke-linecap:butt;fill-opacity:0.5;"
     d="M 182.95 57.7776 C 183.324 57.7776 183.698 57.7776 184.072 57.7776 C 180.674 57.7776 182.58 57.8391 189.684 56.6552 C 202.144 53.0361 215.229 47.8251 227.846 46.5536 C 236.573 47.2083 239.929 50.1086 245.804 56.6552 C 250.247 59.8289 254.065 64.9162 258.15 69.0015 C 260.802 79.1254 262.34 91.1544 266.007 100.428 C 280.159 104.674 294.74 99.001 308.658 94.8165 C 316.952 92.3283 323.011 90.0148 331.106 93.6941 C 337.6 100.188 343.008 107.085 349.064 113.897 C 351.657 119.602 353.425 122.373 356.921 127.366 C 360.465 136.89 358.448 141.28 354.676 150.936 C 348.486 158.01 346.81 159.724 337.84 159.915 C 317.435 155.503 299.41 143.625 280.598 134.1 C 269.14 124.688 261.982 118.893 248.049 116.142 C 240.454 117.108 238.454 120.048 233.458 126.243 C 230.071 131.135 227.998 134.385 225.601 139.712 C 222.089 144.277 221.304 146.253 215.499 146.447 C 199.548 139.243 183.979 132.02 168.359 123.999 C 162.24 120.429 155.754 118.991 152.645 112.775 C 147.586 106.938 138.959 98.6605 135.809 91.4493 C 137.794 86.5648 142.579 85.993 148.156 84.715 C 153.813 82.1766 156.559 80.1833 160.502 74.6135 C 163.492 72.5806 167.777 69.4468 171.726 66.7567 C 178.48 65.1887 179.247 63.3893 182.95 57.7776 z "
     id="path587"
     transform="translate(-51.63002,-8.979149)" />
  <path
     style="fill:#62afd0;fill-rule:evenodd;stroke:none;stroke-opacity:1;stroke-width:1pt;stroke-linejoin:miter;stroke-linecap:butt;fill-opacity:0.5;"
     d="M 316.515 44.3089 C 318.491 45.6265 327.948 52.355 333.35 55.5328 C 343.587 61.1994 351.145 63.8824 362.533 65.6343 C 372.334 65.6343 379.441 65.365 388.348 62.2672 C 395.961 60.4798 400.524 59.3099 408.551 62.2672 C 418.922 69.8603 428.38 77.8349 437.733 86.9598 C 447.545 92.5668 455.562 96.2801 461.303 106.04 C 464.569 117.41 454.72 122.904 446.712 130.733 C 438.717 138.276 432.323 143.422 422.019 147.569 C 415.16 150.431 403.777 152.453 399.572 156.548 C 401.012 164.73 403.791 172.432 404.061 181.241 C 394.341 186.93 382.657 186.853 370.389 186.853 C 362.759 182.825 354.889 174.603 347.942 167.772 C 343.069 160.563 341.297 155.204 341.207 146.447 C 346.157 143.456 354.418 140.789 360.288 137.467 C 363.413 131.737 363.731 126.185 362.533 119.509 C 359.861 116.075 358.721 117.368 354.676 119.509 C 343.724 128.257 331.956 137.726 323.249 147.569 C 315.841 154.197 310.445 159.139 300.801 159.915 C 294.47 159.697 293.057 158.401 289.577 153.181 C 283.249 145.63 277.784 140.682 277.231 130.733 C 277.231 124.078 277.527 119.743 279.476 113.897 C 287.526 111.039 295.852 107.631 304.168 106.04 C 310.154 106.04 316.14 106.04 322.127 106.04 C 323.114 101.102 320.572 100.341 317.637 95.9389 C 311.922 91.3353 306.611 87.9703 299.679 85.8374 C 292.993 83.467 285.059 81.8258 278.353 80.2254 C 273.032 80.0689 273.602 78.5094 272.741 73.4911 C 274.621 66.6862 277.567 62.0605 283.965 58.9 C 288.987 55.6806 292.799 53.8037 297.434 49.9208 C 302.064 46.633 304.223 45.5117 310.903 45.4313 C 310.903 42.4382 310.528 44.3089 316.515 44.3089 z "
     id="path588"
     transform="translate(-49.38526,-6.734352)" />
  <path
     style="fill:#62afd0;fill-rule:evenodd;stroke:none;stroke-opacity:1;stroke-width:1pt;stroke-linejoin:miter;stroke-linecap:butt;fill-opacity:0.5;"
     d="M 213.254 266.542 C 223.045 276.747 232.481 286.928 241.314 297.969 C 250.491 302.864 258.878 307.615 269.374 308.071 C 280.238 303.544 284.924 299.597 291.822 290.113 C 295.456 278.301 296.311 268.783 296.311 256.441 C 295.708 246.782 294.188 238.966 291.822 229.504 C 283.236 218.056 285.995 224.154 282.843 211.545 C 278.536 204.845 273.864 200.452 273.864 192.465 C 287.235 197.145 300.557 201.383 314.27 204.811 C 330.485 206.191 346.24 208.739 362.533 209.3 C 367.363 209.3 375.026 208.054 379.368 210.423 C 390.655 224.571 402.667 237.443 411.918 253.074 C 416.838 258.814 417.6 262.02 418.652 269.91 C 418.446 279.374 416.58 281.892 410.795 290.113 C 405.936 291.897 396.844 292.886 398.449 297.969 C 408.156 311.5 412.792 325.59 415.285 341.743 C 414.097 347.681 405.784 347.903 400.694 349.599 C 386.692 352.673 373.284 354.705 359.165 356.334 C 354.252 358.627 356.463 358.745 359.165 363.068 C 362.315 371.867 363.655 377.335 363.655 386.638 C 363.427 395.077 359.541 398.159 352.431 402.352 C 342.825 402.352 337.692 393.224 331.106 386.638 C 328.804 379.16 326.672 371.669 324.371 364.191 C 324.371 348.91 323.855 334.248 326.616 319.295 C 329.782 306.946 331.926 297.3 338.962 286.746 C 342.038 283.539 345.912 277.175 349.064 280.011 C 346.831 286.153 345.824 290.562 341.207 294.602 C 332.202 302.346 324.035 309.889 314.27 317.05 C 306.722 324.45 299.477 330.187 291.822 337.253 C 281.012 339.618 268.504 336.844 258.15 333.886 C 250.679 332.301 239.747 327.033 231.213 323.784 C 224.499 317.504 219.197 313.424 217.744 304.704 C 215.457 299.119 214.597 294.925 214.377 288.99 C 217.396 283.674 218.632 281.864 218.866 275.522 C 218.866 270.222 218.929 272.595 213.254 266.542 z "
     id="path589"
     transform="translate(-14.59110,-13.46870)" />
  <path
     style="fill:#62afd0;fill-rule:evenodd;stroke:none;stroke-opacity:1;stroke-width:1pt;stroke-linejoin:miter;stroke-linecap:butt;fill-opacity:0.5;"
     d="M 98.7705 249.707 C 101.275 240.074 101.588 239.427 109.994 235.116 C 118.05 234.876 124.376 233.759 131.32 231.748 C 139.242 235.71 144.802 240.458 151.523 246.339 C 161.437 252.288 169.774 258.821 178.46 266.542 C 184.948 273.571 188.195 278.376 197.541 280.011 C 200.858 281.006 205.724 282.314 207.643 280.011 C 215.291 250.671 223.042 220.417 232.335 191.342 C 240.01 184.946 243.837 182.375 253.661 184.608 C 260.542 188.431 266.108 192.13 272.741 196.954 C 280.801 205.014 288.517 212.472 295.189 221.647 C 299.417 229.573 302.767 235.223 308.658 241.85 C 313.639 257.777 319.512 271.217 319.882 287.868 C 319.882 293.351 320.675 290.441 315.392 295.725 C 307.485 306.004 302.719 311.557 290.7 315.928 C 276.108 315.928 261.517 315.928 246.926 315.928 C 238.923 314.459 231.228 311.54 224.478 315.928 C 219.485 316.552 219.898 317.455 215.499 321.54 C 202.09 326.01 193.562 328.138 179.583 328.274 C 161.596 327.103 144.643 325.688 127.953 320.417 C 122.021 319.481 115.994 319.193 109.994 317.05 C 102.925 314.781 94.5383 312.028 88.669 310.316 C 91.2374 321.182 92.7604 325.095 88.669 335.008 C 88.3146 340.324 88.2022 343.344 83.057 343.988 C 73.6581 343.265 70.9457 337.591 63.9763 330.519 C 58.5362 324.263 50.1261 317.112 48.2629 309.193 C 44.5112 299.418 41.5285 293.785 41.5285 283.378 C 43.15 274.576 52.2082 269.908 59.4868 264.298 C 65.063 261.754 69.9417 260.207 76.3227 259.808 C 84.5734 262.353 93.0637 265.407 101.015 266.542 C 107.204 260.611 112.7 258.197 113.362 250.829 C 109.706 249.367 104.243 250.398 98.7705 249.707 z "
     id="path590"
     transform="translate(-113.3616,31.42700)" />
  <path
     style="fill:#62afd0;fill-rule:evenodd;stroke:none;stroke-opacity:1;stroke-width:1pt;stroke-linejoin:miter;stroke-linecap:butt;fill-opacity:0.5;"
     d="M 60.6092 202.566 C 60.9833 202.192 61.3574 201.818 61.7316 201.444 C 60.8677 202.308 49.5888 213.587 66.2211 196.954 C 71.9466 187.241 79.2187 179.982 89.7914 175.629 C 94.0328 173.084 94.9574 176.441 98.7705 180.118 C 122.225 194.214 144.315 208.971 166.114 225.014 C 174.532 229.656 177.892 231.361 187.439 231.748 C 200.34 226.373 202.983 221.817 184.072 240.727 C 197.261 235.452 192.447 239.087 199.786 231.748 C 187.318 242.435 199.182 228.89 204.275 228.381 C 213.608 237.91 223.275 245.444 225.601 258.686 C 219.765 272.692 201.069 274.906 187.439 278.889 C 173.961 279.598 162.419 282.338 149.278 285.623 C 137.246 285.623 130.544 284.853 118.974 281.134 C 112.331 278.114 107.658 275.174 101.015 272.154 C 89.983 269.396 94.2177 272.091 87.5466 265.42 C 79.0693 259.935 75.931 260.085 75.2003 250.829 C 75.5475 247.965 77.1225 239.243 77.445 246.339 C 72.8603 253.579 70.7373 257.668 62.8539 259.808 C 54.4748 259.609 53.3977 258.58 47.1405 253.074 C 42.5261 247.207 39.4344 243.773 39.2837 236.238 C 36.8908 226.762 41.901 223.685 49.3852 218.28 C 51.5687 215.401 53.0472 213.439 53.8748 209.3 "
     id="path591"
     transform="translate(-76.32265,-21.32545)" />
  <path
     style="fill:#62afd0;fill-rule:evenodd;stroke:none;stroke-opacity:1;stroke-width:1pt;stroke-linejoin:miter;stroke-linecap:butt;fill-opacity:0.5;"
     d="M 263.762 275.522 C 265.455 275.522 273.491 276.525 278.353 277.766 C 285.088 280.011 291.822 282.256 298.556 284.501 C 311.638 297.583 323.88 309.774 334.473 324.907 C 342.599 335.171 347.306 346.235 355.798 356.334 C 363.041 364.784 366.048 365.612 377.124 367.558 C 385.282 367.276 388.105 365.495 392.837 358.579 C 394.575 353.365 403.296 372.478 405.183 375.414 C 409.723 383.267 411.918 385.959 411.918 394.495 C 406.123 399.876 403.131 401.279 395.082 402.352 C 378.994 402.352 362.907 402.352 346.819 402.352 C 337.765 404.802 332.98 406.918 324.371 403.474 C 318.04 401.475 311.761 399.449 305.291 396.74 C 299.128 390.577 302.809 392.92 294.067 390.006 C 287.064 386.186 280.598 385.016 280.598 376.537 C 280.811 370.867 283.796 363.437 281.72 359.701 C 276.975 366.737 276.355 368.557 269.374 372.047 C 261.678 375.448 257.658 377.921 253.661 385.516 C 250.738 392.238 245.545 396.999 240.192 402.352 C 227.857 404.034 219.025 402.319 206.52 398.985 C 194.527 389.899 185.112 381.799 177.338 368.68 C 175.742 360.319 176.825 353.965 182.95 348.477 C 192.51 344.593 200.818 340.649 211.01 339.498 C 220.284 338.324 226.994 337.992 235.702 341.743 C 243.231 342.672 245.893 344.36 250.293 338.376 C 249.172 332.77 247.082 331.013 241.314 330.519 C 230.464 330.519 219.615 330.519 208.765 330.519 C 200.015 327.867 197.537 325.002 194.174 315.928 C 194.324 307.203 193.679 298 198.663 292.357 C 208.345 289.378 220.077 293.179 230.09 294.602 C 237.153 295.927 241.948 294.783 249.171 293.48 C 252.265 289.643 254.674 287.962 257.028 284.501 C 259.692 283.359 261.352 279.424 263.762 275.522 z "
     id="path592"
     transform="matrix(0.976144,0.000000,0.000000,1.000000,-167.5111,48.26286)" />
  <path
     style="fill:#62afd0;fill-rule:evenodd;stroke:none;stroke-opacity:1;stroke-width:1pt;stroke-linejoin:miter;stroke-linecap:butt;fill-opacity:0.5;"
     d="M 389.47 189.097 C 389.844 189.097 390.218 189.097 390.592 189.097 C 385.785 189.097 389.318 188.755 393.96 199.199 C 406.176 214.235 417.838 231.351 433.243 242.972 C 436.794 246.159 439.376 249.871 443.345 250.829 C 445.926 242.093 445.944 239.126 453.446 233.993 C 462.294 231.139 466.434 237.675 473.649 242.972 C 482.305 251.826 492.74 261.156 499.464 271.032 C 499.167 279.663 496.182 282.754 489.363 287.868 C 481.591 291.569 474.159 293.89 465.793 295.725 C 457.265 299.041 450.744 300.943 441.1 301.337 C 435.09 304.658 423.703 300.862 416.407 299.092 C 410.157 296.882 402.077 293.929 398.449 288.99 C 397.969 288.03 396.457 293.127 395.082 295.725 C 391.939 299.439 389.429 301.24 384.98 303.581 C 382.133 302.158 376.072 302.459 371.512 302.459 C 354.607 298.033 332.028 297.147 321.004 282.256 C 319.477 276.332 316.44 268.738 314.27 264.298 C 328.699 260.022 345.268 257.297 359.165 251.951 C 367.162 250.669 372.367 249.353 377.124 242.972 C 377.993 238.627 378.246 234.403 378.246 229.504 C 371.592 226.694 366.774 226.136 359.165 226.136 C 351.422 226.812 347.139 228.811 338.962 229.504 C 332.196 225.86 331.997 221.276 331.106 213.79 C 331.106 207.837 334.718 205.703 338.962 202.566 C 345.691 199.357 349.74 197.317 356.921 195.832 C 362.346 193.765 365.978 191.768 371.512 191.342 C 374.313 189.662 380.016 189.902 383.858 191.342 L 371.512 191.342 C 374.313 189.662 380.016 189.902 389.47 189.097 z "
     id="path593"
     transform="translate(-10.10155,-11.22391)" />
  <path
     style="fill:#62afd0;fill-rule:evenodd;stroke:none;stroke-opacity:1;stroke-width:1pt;stroke-linejoin:miter;stroke-linecap:butt;fill-opacity:0.5;"
     d="M 389.47 125.121 C 389.844 125.121 390.218 125.121 390.592 125.121 C 387.455 125.121 389.122 125.26 395.082 122.876 C 410.357 117.974 423.296 124.509 438.855 129.611 C 444.712 132.3 451.348 135.856 452.324 141.957 C 453.983 145.569 454.247 153.206 456.814 156.548 C 461.403 156.548 468.661 155.613 471.405 157.67 C 473.862 164.349 475.936 170.933 473.649 177.873 C 468.076 186.233 464.817 191.944 455.691 196.954 C 437.78 195.237 418.027 190.851 402.939 184.608 C 399.676 182.277 400.694 176.644 400.694 171.139 C 400.694 163.386 398.012 168.011 391.715 172.262 C 381.161 175.78 372.2 179.237 362.533 184.608 C 353.426 188.014 348.496 190.082 338.962 190.22 C 321.563 189.774 306.423 187.945 289.577 183.485 C 283.509 180.451 276.984 178.654 274.986 172.262 C 273.235 167.773 272.157 163.458 273.864 158.793 C 277.911 156.48 278.481 156.324 283.965 154.303 C 288.805 150.155 289.39 149.416 295.189 148.691 C 305.229 146.817 316.15 147.569 326.616 147.569 C 332.912 151.214 337.579 156.052 344.574 154.303 C 350.741 151.157 350.71 148.096 346.819 141.957 C 341.2 135.936 333.168 132.231 327.738 127.366 C 325.573 121.816 323.403 112.561 321.004 106.04 C 321.004 97.8468 322.071 96.2516 329.983 93.6941 C 340.156 93.9169 346.453 96.2646 354.676 101.551 C 360.479 105.799 365.627 111.542 370.389 115.02 C 372.793 118.554 375.024 120.282 380.491 121.754 C 381.768 124.734 384.635 124.268 389.47 125.121 z "
     id="path594"
     transform="translate(7.856712,-1.122398)" />
  <path
     style="fill:#62afd0;fill-rule:evenodd;stroke:none;stroke-opacity:1;stroke-width:1pt;stroke-linejoin:miter;stroke-linecap:butt;fill-opacity:0.5;"
     d="M 379.368 44.3089 C 379.368 43.9347 379.368 43.5606 379.368 43.1865 C 379.368 44.3089 379.368 40.9417 379.368 39.8193 C 383 33.5347 386.091 28.6067 391.715 22.9834 C 397.602 22.2908 403.25 20.6161 407.428 18.4938 C 411.376 15.8332 414.971 16.2491 420.897 16.2491 C 426.839 16.2491 430.723 16.7019 434.366 19.6162 C 438.004 22.5695 443.276 28.908 446.712 31.9625 C 451.33 27.6246 455.503 21.6876 461.303 19.6162 C 467.314 19.788 467.792 22.2847 470.282 27.473 C 478.265 34.1089 487.25 41.2758 489.363 49.9208 C 486.316 58.0469 476.056 58.7883 468.037 62.2672 C 456.759 65.6507 448.382 60.9425 436.61 57.7776 C 429.683 55.1132 428.802 53.3237 424.264 47.676 C 419.991 48.9579 416.879 52.6152 413.04 55.5328 C 393.409 61.7655 374.198 70.1239 353.553 70.1239 C 347.33 69.6571 342.465 68.1547 336.718 66.7567 C 330.148 61.3766 327.507 60.48 326.616 52.1656 C 330.764 48.4984 336.59 45.3944 343.452 43.1865 C 352.057 43.1865 360.662 43.1865 369.267 43.1865 C 372.973 43.1865 375.464 43.6198 379.368 44.3089 z "
     id="path595"
     transform="translate(-51.63002,-7.856712)" />
  <path
     style="fill:#62afd0;fill-rule:evenodd;stroke:none;stroke-opacity:1;stroke-width:1pt;stroke-linejoin:miter;stroke-linecap:butt;fill-opacity:0.5;"
     d="M 162.747 35.3297 C 162.747 34.9556 162.747 34.5815 162.747 34.2073 C 162.747 37.7253 162.98 35.6218 158.257 29.7178 C 154.776 18.2497 176.181 18.045 184.072 16.2491 C 195.943 16.2491 206.3 16.3811 217.744 18.4938 C 226.416 20.8063 234.781 20.8671 241.314 26.3506 C 246.598 31.2572 251.864 35.7777 257.028 40.9417 C 260.099 48.2356 261.561 49.727 268.252 54.4104 C 273.53 59.6888 281.691 59.7456 289.577 60.0224 C 304.857 54.2638 318.679 45.9886 334.473 43.1865 C 340.518 43.6701 342.196 44.8286 345.697 49.9208 C 348.274 55.3476 351.105 60.1914 349.064 65.6343 C 345.234 70.4212 340.803 69.9056 334.473 70.1239 C 309.857 69.3686 285.165 71.156 262.64 61.1448 C 253.5 57.5838 243.939 54.3189 234.58 51.0432 C 229.798 48.0268 227.203 43.9117 222.234 39.8193 C 214.853 40.3561 206.851 47.8094 199.786 52.1656 C 192.374 58.5641 187.328 62.6786 178.46 65.6343 C 169.186 68.3022 159.99 68.355 150.401 66.7567 C 143.626 61.8359 137.452 54.6648 131.32 49.9208 C 124.615 50.1692 118.808 51.6257 112.239 52.1656 C 109.938 44.6875 107.253 40.1868 108.872 31.9625 C 113.974 25.0437 116.22 21.5105 123.463 17.3715 C 131.906 17.3715 138.655 17.6079 145.911 19.6162 C 148.735 22.9204 154.074 27.3502 157.135 29.7178 C 160.653 29.7178 158.023 29.4254 162.747 35.3297 z "
     id="path596"
     transform="translate(-38.16133,-22.44785)" />
  <path
     style="fill:#62afd0;fill-rule:evenodd;stroke:none;stroke-opacity:1;stroke-width:1pt;stroke-linejoin:miter;stroke-linecap:butt;fill-opacity:0.5;"
     d="M 250.293 437.146 C 250.293 438.696 255.117 444.73 258.15 448.37 C 263.55 452.69 262.688 452.127 268.252 453.982 C 277.041 456.026 279.639 456.546 287.332 453.982 C 298.082 454.206 308.048 458.301 318.759 459.594 C 327.279 459.594 331.527 457.197 338.962 452.86 C 350.559 449.96 346.23 453.182 352.431 443.88 C 361.016 432.433 358.258 438.531 361.41 425.922 C 363.178 418.261 364.132 411.135 365.9 403.474 C 362.901 393.73 360.149 383.976 356.921 374.292 C 351.839 369.211 353.378 371.696 351.309 367.558 C 355.599 373.687 359.095 374.824 365.9 377.659 C 378.145 385.142 388.483 390.432 401.816 395.618 C 407.421 399.121 415.554 402.621 419.775 406.841 C 424.195 412.881 429.2 419.761 430.998 427.045 C 433.412 429.659 434.174 431.479 432.121 434.901 C 428.973 439.938 427.367 445.069 424.264 450.615 C 417.48 456.334 413.49 457.384 404.061 458.471 C 393.161 461.215 381.996 460.716 370.389 460.716 C 365.337 462.278 361.204 464.997 359.165 469.695 C 358.976 476.321 355.009 477.51 349.064 479.797 C 338.693 479.797 328.974 478.912 318.759 478.675 C 312.231 478.675 305.864 478.452 299.679 479.797 C 286.538 484.253 277.466 486.531 263.762 486.531 C 249.742 487.376 235.491 487.654 221.111 487.654 C 215.193 486.837 216.622 484.459 216.622 478.675 C 214.986 473.061 212.43 467.415 211.01 462.961 C 217.239 459.761 225.844 458.236 231.213 455.104 C 235.739 451.186 242.783 447.41 244.681 442.758 C 244.681 440.513 244.681 438.268 244.681 436.024 L 244.681 442.758 C 244.681 440.513 244.681 438.268 250.293 437.146 z "
     id="path597"
     transform="translate(-35.91656,-66.22112)" />
  <path
     style="fill:#62afd0;fill-rule:evenodd;stroke:none;stroke-opacity:1;stroke-width:1pt;stroke-linejoin:miter;stroke-linecap:butt;fill-opacity:0.5;"
     d="M 153.768 402.352 C 153.768 401.978 153.768 401.604 153.768 401.23 C 153.768 404.367 153.907 402.699 151.523 396.74 C 146.367 390.313 142.14 386.22 147.033 378.782 C 160.099 374.752 172.78 370.025 186.317 372.047 C 193.82 373.36 193.692 375.406 194.174 383.271 C 195.364 387.976 196.171 399.61 198.663 402.352 C 208.755 400.67 215.748 395.535 224.478 390.006 C 230.156 383.066 235.694 378.228 242.437 372.047 C 249.596 368.793 253.862 365.575 260.395 360.823 C 267.943 357.189 272.861 355.2 280.598 357.456 C 285.984 358.21 291.015 358.607 295.189 361.946 C 303.31 372.173 313.119 382.481 317.637 394.495 C 317.637 398.827 318.107 403.178 316.515 406.841 C 310.093 409.594 294.921 417.279 291.822 415.821 C 293.181 413.555 292.944 411.869 292.944 409.086 C 292.865 418.072 292.376 423.352 286.21 429.289 C 273.869 433.349 261.74 431.194 249.171 429.289 C 242.316 426.584 237.887 426.269 236.825 419.188 C 233.856 415.607 232.625 410.94 232.335 405.719 C 235.751 409.601 237.757 414.61 237.947 420.31 C 236.678 427.418 231.539 429.517 225.601 432.656 C 215.551 434.236 205.637 435.654 195.296 436.024 C 186.745 434.399 175.4 432.442 170.604 428.167 C 164.47 428.934 159.771 433.671 154.89 436.024 C 139.513 439.441 123.67 438.268 107.75 438.268 C 103.453 438.268 98.583 439.763 97.6481 436.024 C 95.7131 432.154 96.5035 427.912 97.6481 423.677 C 104.615 417.937 113.489 409.748 120.096 405.719 C 127.816 405.719 133.637 406.442 140.299 406.841 C 144.119 406.951 146.581 407.855 150.401 407.964 L 140.299 406.841 C 144.119 406.951 146.581 407.855 153.768 402.352 z "
     id="path598"
     transform="translate(-5.611954,-49.38522)" />
  <path
     style="fill:#62afd0;fill-rule:evenodd;stroke:none;stroke-opacity:1;stroke-width:1pt;stroke-linejoin:miter;stroke-linecap:butt;fill-opacity:0.5;"
     d="M 74.0779 306.949 C 74.0779 307.323 74.0779 307.697 74.0779 308.071 C 74.0779 304.673 74.0163 306.579 75.2003 313.683 C 77.4849 321.755 84.8127 321.264 93.1585 321.54 C 106.276 316.807 119.864 308.215 132.442 302.459 C 139.325 300.445 143.476 299.092 150.401 299.092 C 155.268 303.018 156.938 304.603 162.747 305.826 C 169.214 314.283 177.035 322.943 184.072 331.641 C 186.119 336.144 188.726 342.975 191.929 345.11 C 191.929 352.369 191.764 356.201 187.439 361.946 C 174.608 366.184 161.679 362.429 148.156 361.946 C 142.487 362.594 142.071 363.617 140.299 368.68 C 135.501 371.389 130.385 374.758 129.075 378.782 C 131.606 381.312 135.445 384.556 136.932 386.638 C 124.323 388.901 113.226 386.144 101.015 383.271 C 95.1277 378.95 90.8975 376.966 89.7914 370.925 C 93.701 362.64 102.047 357.934 107.75 350.722 C 110.017 346.944 109.593 345.831 105.505 345.11 C 96.9359 349.802 90.4418 351.897 83.057 358.579 C 75.757 363.584 71.0777 366.71 65.0987 373.17 C 61.6169 378.7 60.5409 380.748 52.7524 381.026 C 45.6546 379.759 45.1343 375.035 42.6509 368.68 C 43.0354 360.99 45.5532 356.672 49.3852 350.722 C 53.3218 345.379 58.7214 347.355 66.2211 347.355 C 72.8522 347.126 69.6387 345.539 67.3435 340.62 C 65.4444 334.365 62.0003 328.88 59.4868 322.662 C 55.6508 317.388 53.3266 314.865 52.7524 308.071 C 49.0606 302.32 47.6001 299.942 47.1405 292.357 C 48.5408 288.057 51.6146 287.047 57.242 286.746 C 60.5718 289.183 66.9731 292.273 70.7107 294.602 C 71.9972 297.409 73.7484 298.88 75.2003 301.337 L 70.7107 294.602 C 71.9972 297.409 73.7484 298.88 74.0779 306.949 z "
     id="path599"
     transform="translate(99.89288,-92.03613)" />
  <rect
     style="font-size:12;fill:#000000;fill-rule:evenodd;stroke-width:1pt;fill-opacity:0.254237;"
     id="rect600"
     width="601.602051"
     height="3.367158"
     x="-47.140472"
     y="15.126655" />
  <rect
     style="font-size:12;fill:#000000;fill-rule:evenodd;stroke-width:1pt;fill-opacity:0.254237;"
     id="rect601"
     width="601.602051"
     height="3.367158"
     x="-47.140472"
     y="15.126655"
     transform="translate(0.000000,9.043884)" />
  <rect
     style="font-size:12;fill:#000000;fill-rule:evenodd;stroke-width:1pt;fill-opacity:0.254237;"
     id="rect602"
     width="601.602051"
     height="3.367158"
     x="-47.140472"
     y="15.126655"
     transform="translate(0.000000,18.08777)" />
  <rect
     style="font-size:12;fill:#000000;fill-rule:evenodd;stroke-width:1pt;fill-opacity:0.254237;"
     id="rect603"
     width="601.602051"
     height="3.367158"
     x="-47.140472"
     y="15.126655"
     transform="translate(0.000000,27.13165)" />
  <rect
     style="font-size:12;fill:#000000;fill-rule:evenodd;stroke-width:1pt;fill-opacity:0.254237;"
     id="rect604"
     width="601.602051"
     height="3.367158"
     x="-47.140472"
     y="15.126655"
     transform="translate(0.000000,36.17558)" />
  <rect
     style="font-size:12;fill:#000000;fill-rule:evenodd;stroke-width:1pt;fill-opacity:0.254237;"
     id="rect605"
     width="601.602051"
     height="3.367158"
     x="-47.140472"
     y="15.126655"
     transform="translate(0.000000,45.21946)" />
  <rect
     style="font-size:12;fill:#000000;fill-rule:evenodd;stroke-width:1pt;fill-opacity:0.254237;"
     id="rect606"
     width="601.602051"
     height="3.367158"
     x="-47.140472"
     y="15.126655"
     transform="translate(0.000000,54.26334)" />
  <rect
     style="font-size:12;fill:#000000;fill-rule:evenodd;stroke-width:1pt;fill-opacity:0.254237;"
     id="rect607"
     width="601.602051"
     height="3.367158"
     x="-47.140472"
     y="15.126655"
     transform="translate(0.000000,63.30723)" />
  <rect
     style="font-size:12;fill:#000000;fill-rule:evenodd;stroke-width:1pt;fill-opacity:0.254237;"
     id="rect608"
     width="601.602051"
     height="3.367158"
     x="-47.140472"
     y="15.126655"
     transform="translate(0.000000,72.35111)" />
  <rect
     style="font-size:12;fill:#000000;fill-rule:evenodd;stroke-width:1pt;fill-opacity:0.254237;"
     id="rect609"
     width="601.602051"
     height="3.367158"
     x="-47.140472"
     y="15.126655"
     transform="translate(0.000000,81.39500)" />
  <rect
     style="font-size:12;fill:#000000;fill-rule:evenodd;stroke-width:1pt;fill-opacity:0.254237;"
     id="rect610"
     width="601.602051"
     height="3.367158"
     x="-47.140472"
     y="15.126655"
     transform="translate(0.000000,90.43888)" />
  <rect
     style="font-size:12;fill:#000000;fill-rule:evenodd;stroke-width:1pt;fill-opacity:0.254237;"
     id="rect611"
     width="601.602051"
     height="3.367158"
     x="-47.140472"
     y="15.126655"
     transform="translate(0.000000,99.48280)" />
  <rect
     style="font-size:12;fill:#000000;fill-rule:evenodd;stroke-width:1pt;fill-opacity:0.254237;"
     id="rect612"
     width="601.602051"
     height="3.367158"
     x="-47.140472"
     y="15.126655"
     transform="translate(0.000000,108.5267)" />
  <rect
     style="font-size:12;fill:#000000;fill-rule:evenodd;stroke-width:1pt;fill-opacity:0.254237;"
     id="rect614"
     width="601.602051"
     height="3.367158"
     x="-47.140472"
     y="15.126655"
     transform="translate(0.000000,117.5706)" />
  <rect
     style="font-size:12;fill:#000000;fill-rule:evenodd;stroke-width:1pt;fill-opacity:0.254237;"
     id="rect615"
     width="601.602051"
     height="3.367158"
     x="-47.140472"
     y="15.126655"
     transform="translate(0.000000,126.6145)" />
  <rect
     style="font-size:12;fill:#000000;fill-rule:evenodd;stroke-width:1pt;fill-opacity:0.254237;"
     id="rect616"
     width="601.602051"
     height="3.367158"
     x="-47.140472"
     y="15.126655"
     transform="translate(0.000000,135.6583)" />
  <rect
     style="font-size:12;fill:#000000;fill-rule:evenodd;stroke-width:1pt;fill-opacity:0.254237;"
     id="rect617"
     width="601.602051"
     height="3.367158"
     x="-47.140472"
     y="15.126655"
     transform="translate(0.000000,144.7022)" />
  <rect
     style="font-size:12;fill:#000000;fill-rule:evenodd;stroke-width:1pt;fill-opacity:0.254237;"
     id="rect618"
     width="601.602051"
     height="3.367158"
     x="-47.140472"
     y="15.126655"
     transform="translate(0.000000,153.7461)" />
  <rect
     style="font-size:12;fill:#000000;fill-rule:evenodd;stroke-width:1pt;fill-opacity:0.254237;"
     id="rect619"
     width="601.602051"
     height="3.367158"
     x="-47.140472"
     y="15.126655"
     transform="translate(0.000000,162.7900)" />
  <rect
     style="font-size:12;fill:#000000;fill-rule:evenodd;stroke-width:1pt;fill-opacity:0.254237;"
     id="rect620"
     width="601.602051"
     height="3.367158"
     x="-47.140472"
     y="15.126655"
     transform="translate(0.000000,171.8339)" />
  <rect
     style="font-size:12;fill:#000000;fill-rule:evenodd;stroke-width:1pt;fill-opacity:0.254237;"
     id="rect621"
     width="601.602051"
     height="3.367158"
     x="-47.140472"
     y="15.126655"
     transform="translate(0.000000,180.8778)" />
  <rect
     style="font-size:12;fill:#000000;fill-rule:evenodd;stroke-width:1pt;fill-opacity:0.254237;"
     id="rect622"
     width="601.602051"
     height="3.367158"
     x="-47.140472"
     y="15.126655"
     transform="translate(0.000000,189.9217)" />
  <rect
     style="font-size:12;fill:#000000;fill-rule:evenodd;stroke-width:1pt;fill-opacity:0.254237;"
     id="rect623"
     width="601.602051"
     height="3.367158"
     x="-47.140472"
     y="15.126655"
     transform="translate(0.000000,198.9656)" />
  <rect
     style="font-size:12;fill:#000000;fill-rule:evenodd;stroke-width:1pt;fill-opacity:0.254237;"
     id="rect624"
     width="601.602051"
     height="3.367158"
     x="-47.140472"
     y="15.126655"
     transform="translate(0.000000,208.0095)" />
  <rect
     style="font-size:12;fill:#000000;fill-rule:evenodd;stroke-width:1pt;fill-opacity:0.254237;"
     id="rect625"
     width="601.602051"
     height="3.367158"
     x="-47.140472"
     y="15.126655"
     transform="translate(0.000000,217.0534)" />
  <rect
     style="font-size:12;fill:#000000;fill-rule:evenodd;stroke-width:1pt;fill-opacity:0.254237;"
     id="rect626"
     width="601.602051"
     height="3.367158"
     x="-47.140472"
     y="15.126655"
     transform="translate(0.000000,226.0972)" />
  <rect
     style="font-size:12;fill:#000000;fill-rule:evenodd;stroke-width:1pt;fill-opacity:0.254237;"
     id="rect627"
     width="601.602051"
     height="3.367158"
     x="-47.140472"
     y="15.126655"
     transform="translate(0.000000,235.1411)" />
  <rect
     style="font-size:12;fill:#000000;fill-rule:evenodd;stroke-width:1pt;fill-opacity:0.254237;"
     id="rect628"
     width="601.602051"
     height="3.367158"
     x="-47.140472"
     y="15.126655"
     transform="translate(0.000000,244.1850)" />
  <rect
     style="font-size:12;fill:#000000;fill-rule:evenodd;stroke-width:1pt;fill-opacity:0.254237;"
     id="rect629"
     width="601.602051"
     height="3.367158"
     x="-47.140472"
     y="15.126655"
     transform="translate(0.000000,253.2289)" />
  <rect
     style="font-size:12;fill:#000000;fill-rule:evenodd;stroke-width:1pt;fill-opacity:0.254237;"
     id="rect630"
     width="601.602051"
     height="3.367158"
     x="-47.140472"
     y="15.126655"
     transform="translate(0.000000,262.2728)" />
  <rect
     style="font-size:12;fill:#000000;fill-rule:evenodd;stroke-width:1pt;fill-opacity:0.254237;"
     id="rect631"
     width="601.602051"
     height="3.367158"
     x="-47.140472"
     y="15.126655"
     transform="translate(0.000000,271.3167)" />
  <rect
     style="font-size:12;fill:#000000;fill-rule:evenodd;stroke-width:1pt;fill-opacity:0.254237;"
     id="rect632"
     width="601.602051"
     height="3.367158"
     x="-47.140472"
     y="15.126655"
     transform="translate(0.000000,280.3606)" />
  <rect
     style="font-size:12;fill:#000000;fill-rule:evenodd;stroke-width:1pt;fill-opacity:0.254237;"
     id="rect633"
     width="601.602051"
     height="3.367158"
     x="-47.140472"
     y="15.126655"
     transform="translate(0.000000,289.4045)" />
  <rect
     style="font-size:12;fill:#000000;fill-rule:evenodd;stroke-width:1pt;fill-opacity:0.254237;"
     id="rect634"
     width="601.602051"
     height="3.367158"
     x="-47.140472"
     y="15.126655"
     transform="translate(0.000000,298.4484)" />
  <rect
     style="font-size:12;fill:#000000;fill-rule:evenodd;stroke-width:1pt;fill-opacity:0.254237;"
     id="rect635"
     width="601.602051"
     height="3.367158"
     x="-47.140472"
     y="15.126655"
     transform="translate(0.000000,307.4922)" />
  <rect
     style="font-size:12;fill:#000000;fill-rule:evenodd;stroke-width:1pt;fill-opacity:0.254237;"
     id="rect636"
     width="601.602051"
     height="3.367158"
     x="-47.140472"
     y="15.126655"
     transform="translate(0.000000,316.5361)" />
  <rect
     style="font-size:12;fill:#000000;fill-rule:evenodd;stroke-width:1pt;fill-opacity:0.254237;"
     id="rect637"
     width="601.602051"
     height="3.367158"
     x="-47.140472"
     y="15.126655"
     transform="translate(0.000000,325.5800)" />
  <rect
     style="font-size:12;fill:#000000;fill-rule:evenodd;stroke-width:1pt;fill-opacity:0.254237;"
     id="rect638"
     width="601.602051"
     height="3.367158"
     x="-47.140472"
     y="15.126655"
     transform="translate(0.000000,334.6239)" />
  <rect
     style="font-size:12;fill:#000000;fill-rule:evenodd;stroke-width:1pt;fill-opacity:0.254237;"
     id="rect639"
     width="601.602051"
     height="3.367158"
     x="-47.140472"
     y="15.126655"
     transform="translate(0.000000,343.6678)" />
  <rect
     style="font-size:12;fill:#000000;fill-rule:evenodd;stroke-width:1pt;fill-opacity:0.254237;"
     id="rect640"
     width="601.602051"
     height="3.367158"
     x="-47.140472"
     y="15.126655"
     transform="translate(0.000000,352.7117)" />
  <rect
     style="font-size:12;fill:#000000;fill-rule:evenodd;stroke-width:1pt;fill-opacity:0.254237;"
     id="rect641"
     width="601.602051"
     height="3.367158"
     x="-47.140472"
     y="15.126655"
     transform="translate(0.000000,361.7556)" />
  <rect
     style="font-size:12;fill:#000000;fill-rule:evenodd;stroke-width:1pt;fill-opacity:0.254237;"
     id="rect642"
     width="601.602051"
     height="3.367158"
     x="-47.140472"
     y="15.126655"
     transform="translate(0.000000,370.7995)" />
  <rect
     style="font-size:12;fill:#000000;fill-rule:evenodd;stroke-width:1pt;fill-opacity:0.254237;"
     id="rect643"
     width="601.602051"
     height="3.367158"
     x="-47.140472"
     y="15.126655"
     transform="translate(0.000000,379.8434)" />
  <rect
     style="font-size:12;fill:#000000;fill-rule:evenodd;stroke-width:1pt;fill-opacity:0.254237;"
     id="rect645"
     width="601.602051"
     height="3.367158"
     x="-47.140472"
     y="15.126655"
     transform="translate(0.000000,388.8873)" />
  <rect
     style="font-size:12;fill:#000000;fill-rule:evenodd;stroke-width:1pt;fill-opacity:0.254237;"
     id="rect646"
     width="601.602051"
     height="3.367158"
     x="-47.140472"
     y="15.126655"
     transform="translate(0.000000,397.9312)" />
  <rect
     style="font-size:12;fill:#000000;fill-rule:evenodd;stroke-width:1pt;fill-opacity:0.254237;"
     id="rect647"
     width="601.602051"
     height="3.367158"
     x="-47.140472"
     y="15.126655"
     transform="translate(0.000000,406.9750)" />
  <rect
     style="font-size:12;fill:#000000;fill-rule:evenodd;stroke-width:1pt;fill-opacity:0.254237;"
     id="rect648"
     width="601.602051"
     height="3.367158"
     x="-47.140472"
     y="15.126655"
     transform="translate(0.000000,416.0189)" />
  <rect
     style="font-size:12;fill:#000000;fill-rule:evenodd;stroke-width:1pt;fill-opacity:0.254237;"
     id="rect649"
     width="601.602051"
     height="3.367158"
     x="-47.140472"
     y="15.126655"
     transform="translate(0.000000,425.0628)" />
  <rect
     style="font-size:12;fill:#000000;fill-rule:evenodd;stroke-width:1pt;fill-opacity:0.254237;"
     id="rect650"
     width="601.602051"
     height="3.367158"
     x="-47.140472"
     y="15.126655"
     transform="translate(0.000000,434.1067)" />
  <rect
     style="font-size:12;fill:#000000;fill-rule:evenodd;stroke-width:1pt;fill-opacity:0.254237;"
     id="rect651"
     width="601.602051"
     height="3.367158"
     x="-47.140472"
     y="15.126655"
     transform="translate(0.000000,443.1506)" />
  <rect
     style="font-size:12;fill:#000000;fill-rule:evenodd;stroke-width:1pt;fill-opacity:0.254237;"
     id="rect652"
     width="601.602051"
     height="3.367158"
     x="-47.140472"
     y="15.126655"
     transform="translate(0.000000,452.1945)" />
  <rect
     style="font-size:12;fill:#000000;fill-rule:evenodd;stroke-width:1pt;fill-opacity:0.254237;"
     id="rect653"
     width="601.602051"
     height="3.367158"
     x="-47.140472"
     y="15.126655"
     transform="translate(0.000000,461.2384)" />
  <rect
     style="font-size:12;fill:#000000;fill-rule:evenodd;stroke-width:1pt;fill-opacity:0.254237;"
     id="rect951"
     width="601.602051"
     height="2.244759"
     x="-48.262871"
     y="485.408905" />
</svg>
