<?xml version="1.0" encoding="UTF-8" standalone="no"?>
<!DOCTYPE svg PUBLIC "-//W3C//DTD SVG 1.0//EN"
"http://www.w3.org/TR/2001/REC-SVG-20010904/DTD/svg10.dtd">
<!-- Created with Sodipodi ("http://www.sodipodi.com/") -->
<svg
   id="svg602"
   sodipodi:version="0.34"
   xmlns="http://www.w3.org/2000/svg"
   xmlns:sodipodi="http://sodipodi.sourceforge.net/DTD/sodipodi-0.dtd"
   xmlns:xlink="http://www.w3.org/1999/xlink"
   width="400pt"
   height="400pt"
   xml:space="preserve"
   sodipodi:docbase="/home/fulld/tmp"
   sodipodi:docname="/home/fulld/tmp/helpalbums.svg"><defs
   id="defs604" /><sodipodi:namedview
   id="base" /><rect
   style="font-size:12;fill:#808080;fill-opacity:0.1667;fill-rule:evenodd;stroke:#000000;stroke-width:4.402191;stroke-opacity:0.5449;"
   id="rect610"
   width="222.500076"
   height="176.250015"
   rx="22.2500076"
   ry="17.6250019"
   x="37.5000076"
   y="88.7500458" /><image
   xlink:href="/home/fulld/development/fdcl/themes/photogenic/images/album.png"
   sodipodi:absref="/home/fulld/development/fdcl/themes/photogenic/images/album.png"
   width="39.75"
   height="39.75"
   id="image605"
   x="53.7499924"
   y="112.5" /><image
   xlink:href="/home/fulld/development/fdcl/themes/photogenic/images/topic.gif"
   sodipodi:absref="/home/fulld/development/fdcl/themes/photogenic/images/topic.gif"
   width="60.9999962"
   height="60.9999924"
   id="image606"
   x="4.99999952"
   y="51.2500153" /><text
   style="fill:black;stroke:none;font-family:helvetica;font-style:normal;font-weight:normal;font-size:12px;fill-opacity:1;stroke-opacity:1;stroke-width:1pt;stroke-linejoin:miter;stroke-linecap:butt;"
   x="37.4348427"
   y="40.8744816"
   id="text611"
   transform="scale(1.863429,1.86343)"><tspan
   id="tspan612">Topic: Friends</tspan></text><text
   style="fill:black;stroke:none;font-family:helvetica;font-style:normal;font-weight:normal;font-size:12px;fill-opacity:1;stroke-opacity:1;stroke-width:1pt;stroke-linejoin:miter;stroke-linecap:butt;"
   x="58.6235857"
   y="82.7865111"
   id="text614"
   transform="scale(1.720565,1.720564)"><tspan
   id="tspan615">Album: Harry</tspan></text><text
   style="fill:black;stroke:none;font-family:helvetica;font-style:normal;font-weight:normal;font-size:12px;fill-opacity:1;stroke-opacity:1;stroke-width:1pt;stroke-linejoin:miter;stroke-linecap:butt;"
   x="75.9642949"
   y="119.039338"
   id="text620"
   transform="scale(1.755645,1.755646)"><tspan
   id="tspan621">Album: Bob</tspan></text><image
   xlink:href="/home/fulld/development/fdcl/themes/photogenic/images/album.png"
   sodipodi:absref="/home/fulld/development/fdcl/themes/photogenic/images/album.png"
   width="39.75"
   height="39.75"
   id="image623"
   x="86.25"
   y="178.75" /><image
   xlink:href="/home/fulld/development/fdcl/themes/photogenic/images/photo.png"
   sodipodi:absref="/home/fulld/development/fdcl/themes/photogenic/images/photo.png"
   width="39.75"
   height="39.75"
   id="image624"
   x="110"
   y="300" /><rect
   style="font-size:12;fill:#808080;fill-opacity:0.1667;fill-rule:evenodd;stroke:#000000;stroke-width:4.173677;stroke-opacity:0.5449;"
   id="rect625"
   width="200.000107"
   height="176.250015"
   rx="20.0000095"
   ry="17.6250019"
   x="288.750031"
   y="88.7500458" /><image
   xlink:href="/home/fulld/development/fdcl/themes/photogenic/images/topic.gif"
   sodipodi:absref="/home/fulld/development/fdcl/themes/photogenic/images/topic.gif"
   width="60.9999962"
   height="60.9999924"
   id="image627"
   x="275"
   y="50.0000153" /><text
   style="fill:black;stroke:none;font-family:helvetica;font-style:normal;font-weight:normal;font-size:12px;fill-opacity:1;stroke-opacity:1;stroke-width:1pt;stroke-linejoin:miter;stroke-linecap:butt;"
   x="186.759375"
   y="40.7137092"
   id="text628"
   transform="scale(1.872755,1.872756)"><tspan
   id="tspan629">Topic: Places</tspan></text><text
   style="fill:black;stroke:none;font-family:helvetica;font-style:normal;font-weight:normal;font-size:12px;fill-opacity:1;stroke-opacity:1;stroke-width:1pt;stroke-linejoin:miter;stroke-linecap:butt;"
   x="199.850389"
   y="99.1036536"
   id="text634"
   transform="scale(1.755645,1.755646)"><tspan
   id="tspan635">Album: Home</tspan></text><image
   xlink:href="/home/fulld/development/fdcl/themes/photogenic/images/album.png"
   sodipodi:absref="/home/fulld/development/fdcl/themes/photogenic/images/album.png"
   width="39.75"
   height="39.75"
   id="image637"
   x="302.5"
   y="143.75" /><text
   style="fill:black;stroke:none;font-family:helvetica;font-style:normal;font-weight:normal;font-size:12px;fill-opacity:1;stroke-opacity:1;stroke-width:1pt;stroke-linejoin:miter;stroke-linecap:butt;"
   x="91.6480439"
   y="187.712517"
   id="text638"
   transform="scale(1.724573,1.724573)"><tspan
   id="tspan639">Harry in his new car</tspan></text><image
   xlink:href="/home/fulld/development/fdcl/themes/photogenic/images/photo.png"
   sodipodi:absref="/home/fulld/development/fdcl/themes/photogenic/images/photo.png"
   width="39.75"
   height="39.75"
   id="image641"
   x="110"
   y="350" /><text
   style="fill:black;stroke:none;font-family:helvetica;font-style:normal;font-weight:normal;font-size:12px;fill-opacity:1;stroke-opacity:1;stroke-width:1pt;stroke-linejoin:miter;stroke-linecap:butt;"
   x="91.6480439"
   y="216.705255"
   id="text642"
   transform="scale(1.724573,1.724573)"><tspan
   id="tspan643">Harry and Bob wrestling</tspan></text><image
   xlink:href="/home/fulld/development/fdcl/themes/photogenic/images/photo.png"
   sodipodi:absref="/home/fulld/development/fdcl/themes/photogenic/images/photo.png"
   width="39.75"
   height="39.75"
   id="image645"
   x="110"
   y="400" /><text
   style="fill:black;stroke:none;font-family:helvetica;font-style:normal;font-weight:normal;font-size:12px;fill-opacity:1;stroke-opacity:1;stroke-width:1pt;stroke-linejoin:miter;stroke-linecap:butt;"
   x="91.6480439"
   y="245.697993"
   id="text646"
   transform="scale(1.724573,1.724573)"><tspan
   id="tspan647">Bob at home</tspan></text><path
   style="fill:none;fill-rule:evenodd;stroke:black;stroke-opacity:1;stroke-width:1.25;stroke-linejoin:miter;stroke-linecap:butt;fill-opacity:1;stroke-dasharray:none;"
   d="M 106.25 321.25 C 102.3026 319.2763 93.43184 319.0353 87.591 317.1481 C 45.79839 303.6449 11.26849 274.4395 13.14076 226.7448 C 14.13668 201.3744 23.96385 158.5753 47.84312 146.0648 "
   id="path650" /><path
   style="fill:none;fill-rule:evenodd;stroke:black;stroke-opacity:1;stroke-width:1.25;stroke-linejoin:miter;stroke-linecap:butt;fill-opacity:1;stroke-dasharray:none;"
   d="M 105 366.25 C 93.81189 360.656 88.26318 361.4004 77.49305 351.0582 C 42.81086 317.7542 46.18018 256.4637 68.93755 218.1903 C 70.49858 215.565 73.8308 213.9049 75.3842 211.3203 "
   id="path651" /><path
   style="fill:none;fill-rule:evenodd;stroke:black;stroke-opacity:1;stroke-width:1.25;stroke-linejoin:miter;stroke-linecap:butt;fill-opacity:1;stroke-dasharray:none;"
   d="M 105 372.5 C 74.4309 372.5 39.91399 313.3856 36.84379 286.522 C 33.56055 257.7945 35.74388 227.898 38.95591 199.2612 C 40.25097 187.7151 42.55081 166.578 48.79416 157.4001 "
   id="path652" /><path
   style="fill:none;fill-rule:evenodd;stroke:black;stroke-opacity:1;stroke-width:1.25;stroke-linejoin:miter;stroke-linecap:butt;fill-opacity:1;stroke-dasharray:none;"
   d="M 302.5 418.75 C 332.016 418.75 381.666 394.4756 394.3844 367.6013 C 411.5545 331.3206 411.2801 259.0094 399.5473 221.2796 C 398.5412 218.0443 393.4012 199.5383 391.1404 198.6066 "
   id="path654" /><path
   style="fill:none;fill-rule:evenodd;stroke:black;stroke-opacity:1;stroke-width:1pt;stroke-linejoin:miter;stroke-linecap:butt;fill-opacity:1;"
   d="M 105 421.25 C 79.81051 408.6553 80.63501 341.8825 80.23596 317.3726 C 79.89161 296.2231 87.05694 247.3124 97.66052 229.7057 "
   id="path655" /><path
   style="fill:none;fill-rule:evenodd;stroke:black;stroke-opacity:1;stroke-width:1pt;stroke-linejoin:miter;stroke-linecap:butt;fill-opacity:1;"
   d="M 50 165 C 50 162.7798 49.18412 156.9028 47.52231 155.5806 C 46.47946 154.7509 46.04185 157.7982 45.25047 158.8704 C 43.79539 160.8419 42.10355 160.6167 39.99689 160.6229 "
   id="path658" /><path
   style="fill:none;fill-rule:evenodd;stroke:black;stroke-opacity:1;stroke-width:1pt;stroke-linejoin:miter;stroke-linecap:butt;fill-opacity:1;"
   d="M 38.75 140 C 42.5875 140 45.54927 145.8257 47.63957 145.799 C 48.11268 145.7929 46.95763 146.5389 46.8959 147.008 C 46.60532 149.2161 44.46888 151.011 44.33627 153.1644 "
   id="path659" /><path
   style="fill:none;fill-rule:evenodd;stroke:black;stroke-opacity:1;stroke-width:1pt;stroke-linejoin:miter;stroke-linecap:butt;fill-opacity:1;"
   d="M 66.875 207.5 C 69.86516 207.5 75.93638 211.1654 75.41749 214.2723 C 74.88425 217.4651 73.73339 219.2132 74.39917 222.7339 "
   id="path660" /><path
   style="fill:none;fill-rule:evenodd;stroke:black;stroke-opacity:1;stroke-width:1pt;stroke-linejoin:miter;stroke-linecap:butt;fill-opacity:1;"
   d="M 87.50001 234.375 C 97.32832 229.4609 95.07802 225.0227 99.09519 237.1815 C 99.36848 238.0087 100.5776 237.821 101.2422 239.0217 "
   id="path661" /><path
   style="fill:none;fill-rule:evenodd;stroke:black;stroke-opacity:1;stroke-width:1pt;stroke-linejoin:miter;stroke-linecap:butt;fill-opacity:1;"
   d="M 389.375 208.75 C 389.375 199.9869 387.582 198.1576 396.0376 201.4328 C 398.0735 202.2214 399.7612 203.5819 401.7915 204.3876 "
   id="path662" /></svg>
